<?xml version="1.0" standalone="no"?>
<!DOCTYPE svg PUBLIC "-//W3C//DTD SVG 1.1//EN" "http://www.w3.org/Graphics/SVG/1.1/DTD/svg11.dtd" >
<svg xmlns="http://www.w3.org/2000/svg" xmlns:xlink="http://www.w3.org/1999/xlink" version="1.1">
<metadata>
Created by FontForge 20150102 at Mon Feb  2 05:11:41 2015
 By uniteet7
</metadata>
<defs>
<font id="PillGothic600mgThin" horiz-adv-x="237" >
  <font-face 
    font-family="PillGothic600mgThin"
    font-weight="250"
    font-stretch="normal"
    units-per-em="1000"
    panose-1="2 0 5 3 3 0 0 2 0 4"
    ascent="800"
    descent="-200"
    x-height="490"
    cap-height="680"
    bbox="-30 -268 941 910"
    underline-thickness="50"
    underline-position="-50"
    unicode-range="U+0020-FB04"
  />
<missing-glyph horiz-adv-x="218" 
 />
    <glyph glyph-name="germandbls" unicode="ss" horiz-adv-x="617" 
d="M55 490h53v107q0 34 13 60.5t35.5 45t51.5 28.5t60 10q18 0 38.5 -3.5t38.5 -11.5l-11 -34q-14 6 -33 9t-33 3q-55 0 -89 -25.5t-34 -81.5v-107h388v-35l-148 -168h48q37 0 60.5 -11.5t37.5 -28t19.5 -36t5.5 -35.5v-80q0 -20 -11 -39t-30 -33.5t-44.5 -23t-54.5 -8.5
q-55 0 -92 23t-50 57l35 15q8 -25 37.5 -41.5t69.5 -16.5q43 0 73 18t30 49v80q0 32 -20.5 53t-62.5 21h-99v37l146 166h-338v-453h-37v454h-53v36z" />
    <glyph glyph-name="arrowleft" unicode="&#x3c;&#x2d;" horiz-adv-x="437" 
d="M241 426l-125 -155h266v-37h-266l122 -142l-25 -22l-158 182l161 196z" />
    <glyph glyph-name="arrowright" unicode="&#x2d;&#x3e;" horiz-adv-x="437" 
d="M221 449l161 -196l-158 -192l-25 22l122 152h-266v36h266l-125 156z" />
    <glyph glyph-name="smiley" unicode="&#x28;&#x3a;" horiz-adv-x="793" 
d="M38 350q0 75 28.5 141t77.5 114.5t115 77t141 28.5t140.5 -28.5t114 -77t77 -114.5t28.5 -141t-28.5 -140.5t-77 -114.5t-114 -77.5t-140.5 -28.5t-141 28.5t-115 77.5t-77.5 114.5t-28.5 140.5zM75 350q0 -67 26 -126t70 -103t103.5 -69.5t126.5 -25.5t125.5 25.5
t102 69.5t69 103t25.5 126t-25.5 126t-69.5 103t-102.5 69.5t-125.5 25.5t-126 -25.5t-103.5 -69.5t-70 -103t-25.5 -126zM604 283q-19 -56 -63 -90t-100 -34h-80q-54 0 -97.5 34t-63.5 88l36 15q16 -44 49.5 -72t75.5 -28h80q45 0 80.5 29.5t51.5 72.5zM263 516h66v-128
h-66v128zM474 516h66v-128h-66v128z" />
    <glyph glyph-name="f_j" unicode="fj" horiz-adv-x="560" 
d="M308 731q28 0 65 -15t92 -42l-15 -35q-20 11 -41 20.5t-40.5 17.5t-35.5 12.5t-25 4.5q-27 0 -49.5 -8t-38 -22.5t-24.5 -33.5t-9 -41v-96h119v-37h-120v-456h-37v456h-107v37h108v96q0 29 11.5 55t32.5 45.5t50 30.5t64 11zM419 490h37v-465q0 -67 -11.5 -108t-34.5 -67
t-56.5 -43t-77.5 -35l-16 33q40 16 69.5 31t49.5 38t30 58.5t10 93.5v464z" />
    <glyph glyph-name="ff" unicode="ff" horiz-adv-x="563" 
d="M246 724q17 0 38.5 -4t44.5 -10.5t45.5 -15.5t41.5 -18q20 26 51.5 40.5t69.5 14.5q18 0 42 -4.5t42 -10.5l-8 -31q-14 5 -38 7t-38 2q-55 0 -84 -31t-29 -80v-92h119v-37h-119v-454h-37v454h-103v37h103v96q0 16 2.5 30t7.5 28q-34 19 -77 30.5t-74 11.5
q-54 0 -78 -30.5t-24 -74.5v-90h90v-37h-90v-455h-37v455h-107v37h107v90q0 29 8.5 55t26 45.5t43.5 30.5t61 11z" />
    <glyph glyph-name="fi" unicode="fi" horiz-adv-x="543" 
d="M291 741q29 0 59 -9.5t56 -21.5q30 -14 58 -31l-18 -33q-26 16 -53 29q-23 11 -50.5 20t-51.5 9q-27 0 -49.5 -8t-38.5 -22.5t-25 -33.5t-9 -41v-109h120v-37h-120v-453h-37v453h-107v37h107v109q0 29 12 55t33 45.5t50 30.5t64 11zM418 490h37v-490h-37v490z" />
    <glyph glyph-name="fl" unicode="fl" horiz-adv-x="553" 
d="M291 741q17 0 38 -3t42 -8.5t40 -12t32 -13.5h15v-704h-39v675q-14 7 -31 12.5t-34.5 9t-34 5.5t-28.5 2q-27 0 -49.5 -8t-38 -22.5t-24.5 -33.5t-9 -41v-108h119v-37h-121v-454h-37v454h-106v37h108v108q0 29 11.5 55t32.5 45.5t50 30.5t64 11z" />
    <glyph glyph-name="wink" unicode="&#x28;&#x3b;" horiz-adv-x="793" 
d="M38 351q0 75 28.5 141t77.5 114.5t115 77t141 28.5t140.5 -28.5t114 -77t77 -114.5t28.5 -141t-28.5 -140.5t-77 -114.5t-114 -77.5t-140.5 -28.5t-141 28.5t-115 77.5t-77.5 114.5t-28.5 140.5zM75 351q0 -67 26 -126t70 -103t103.5 -69.5t126.5 -25.5t125.5 25.5
t102 69.5t69 103t25.5 126t-25.5 126t-69.5 103t-102.5 69.5t-125.5 25.5t-126 -25.5t-103.5 -69.5t-70 -103t-25.5 -126zM600 269q-19 -57 -63 -91t-101 -34h-80q-53 0 -96.5 34.5t-63.5 88.5l36 14q15 -44 49 -72t75 -28h80q46 0 81.5 29.5t51.5 72.5zM245 495h79v-108
h-79v108zM431 421v37h174v-37h-174z" />
    <glyph glyph-name="T_h" unicode="Th" horiz-adv-x="986" 
d="M15 643v37h532v-37h-264v-643h-37v643h-231zM771 501q78 0 124 -44t46 -122v-335h-37v335q0 62 -35.5 95.5t-97.5 33.5q-31 0 -64.5 -12.5t-60.5 -34t-44.5 -50t-17.5 -59.5v-308h-37v680h37v-288q30 51 77.5 80t109.5 29z" />
    <glyph glyph-name=".notdef" horiz-adv-x="218" 
 />
    <glyph glyph-name=".null" horiz-adv-x="0" 
 />
    <glyph glyph-name="nonmarkingreturn" horiz-adv-x="218" 
 />
    <glyph glyph-name="space" unicode=" " horiz-adv-x="218" 
 />
    <glyph glyph-name="exclam" unicode="!" 
d="M148 235h-37v445h37v-445zM91 85h78v-85h-78v85z" />
    <glyph glyph-name="quotedbl" unicode="&#x22;" horiz-adv-x="281" 
d="M65 680h37v-221h-37v221zM179 680h37v-221h-37v221z" />
    <glyph glyph-name="numbersign" unicode="#" horiz-adv-x="721" 
d="M469 451l37 199h37l-36 -199h159v-37h-166l-36 -198h177v-37h-183l-32 -179h-38l31 179h-146l-33 -179h-37l31 179h-179v37h186l37 198h-199v37h206l36 199h38l-36 -199h146zM426 216l36 198h-146l-37 -198h147z" />
    <glyph glyph-name="dollar" unicode="$" horiz-adv-x="513" 
d="M458 269v-96q0 -43 -14.5 -75t-38.5 -53.5t-55.5 -33.5t-66.5 -15v-127h-37v127q-143 6 -189 117l35 14q19 -45 62 -69.5t104 -24.5q32 0 61.5 7t52 23t36 43.5t13.5 67.5v65l-346 162v114q0 46 16.5 77t42.5 50t58.5 27.5t63.5 10.5v100h37v-102q56 -4 97.5 -30
t61.5 -75l-35 -15q-37 85 -137 85q-21 0 -50 -3t-55 -15.5t-44.5 -38.5t-18.5 -72v-86z" />
    <glyph glyph-name="percent" unicode="%" horiz-adv-x="717" 
d="M318 481q0 -21 -9.5 -39.5t-26 -32t-38.5 -21.5t-47 -8t-47.5 8t-39 21.5t-26 32t-9.5 39.5v109q0 21 9.5 39t26 31.5t39 21.5t47.5 8t47 -8t38.5 -21.5t26 -31.5t9.5 -39v-109zM642 91q0 -21 -9.5 -39.5t-26 -32t-38.5 -21.5t-47 -8t-47.5 8t-39 21.5t-26 32t-9.5 39.5
v109q0 21 9.5 39t26 31.5t39 21.5t47.5 8t47 -8t38.5 -21.5t26 -31.5t9.5 -39v-109zM112 481q0 -13 7 -24.5t18.5 -20.5t27 -14t32.5 -5q35 0 59.5 19t24.5 45v109q0 27 -24.5 45t-59.5 18t-60 -18.5t-25 -44.5v-109zM436 91q0 -13 7 -24.5t18.5 -20.5t27 -14t32.5 -5
q35 0 59.5 19t24.5 45v109q0 27 -24.5 45t-59.5 18t-60 -18.5t-25 -44.5v-109zM126 0l418 680h47l-417 -680h-48z" />
    <glyph glyph-name="ampersand" unicode="&#x26;" horiz-adv-x="680" 
d="M620 253l-102 -112l123 -130l-29 -26l-119 127q-23 -25 -48 -47t-53.5 -38.5t-62 -26.5t-73.5 -10q-93 0 -147 41.5t-54 125.5q0 42 17.5 75t44 61t58 53.5t60.5 52.5l-90 102v80q0 24 9 44t25.5 34.5t38.5 23t48 8.5q62 0 94.5 -32.5t32.5 -89.5q0 -27 -8.5 -50.5
t-23 -44.5t-33.5 -40.5t-40 -37.5l205 -229l98 110zM256 27q36 0 65.5 9t54.5 24t47 35.5t43 43.5l-209 234q-28 -27 -57 -50t-53 -46.5t-39.5 -50.5t-15.5 -64q0 -24 7 -48t25 -43.5t50 -31.5t82 -12zM182 513l81 -94q38 36 65.5 71t27.5 76q0 88 -90 88q-26 0 -42.5 -9
t-25.5 -21.5t-12.5 -25t-3.5 -20.5v-65z" />
    <glyph glyph-name="quotesingle" unicode="'" horiz-adv-x="207" 
d="M85 700h37v-222h-37v222z" />
    <glyph glyph-name="parenleft" unicode="(" horiz-adv-x="309" 
d="M95 452q0 51 9 97.5t26.5 85.5t42.5 69.5t56 49.5l20 -30q-53 -32 -85 -102t-32 -170v-369q0 -103 32 -170t85 -100l-20 -32q-31 19 -56 49.5t-42.5 69.5t-26.5 85.5t-9 97.5v369z" />
    <glyph glyph-name="parenright" unicode=")" horiz-adv-x="308" 
d="M213 95q0 -51 -9 -99t-26 -89t-41.5 -73t-56.5 -51l-20 32q53 33 84.5 103.5t31.5 176.5v347q0 100 -31.5 173t-84.5 105l20 34q32 -19 56.5 -51t41.5 -73t26 -89t9 -99v-347z" />
    <glyph glyph-name="asterisk" unicode="*" horiz-adv-x="381" 
d="M315 625l11 -35l-105 -33l65 -88l-30 -22l-65 88l-66 -88l-30 22l65 88l-105 33l11 35l106 -33v108h38v-108z" />
    <glyph glyph-name="plus" unicode="+" horiz-adv-x="572" 
d="M304 402h233v-37h-233v-235h-37v235h-232v37h232v218h37v-218z" />
    <glyph glyph-name="comma" unicode="," horiz-adv-x="156" 
d="M96 70v-26q0 -34 -3 -58t-9 -42t-14.5 -32t-20.5 -28l-25 17q9 13 15 24.5t9.5 25t5.5 29.5t2 37v53h40z" />
    <glyph glyph-name="hyphen" unicode="-" horiz-adv-x="321" 
d="M55 297h211v-37h-211v37z" />
    <glyph glyph-name="period" unicode="." horiz-adv-x="227" 
d="M75 84h77v-84h-77v84z" />
    <glyph glyph-name="slash" unicode="/" horiz-adv-x="342" 
d="M25 -85l256 765h42l-256 -765h-42z" />
    <glyph glyph-name="zero" unicode="0" horiz-adv-x="656" 
d="M328 690q46 0 89.5 -13t77.5 -39t54.5 -63.5t20.5 -87.5v-294q0 -50 -20.5 -88t-54.5 -63.5t-77.5 -38.5t-89.5 -13t-90 13t-78 38.5t-54.5 63.5t-20.5 88v294q0 50 21 87.5t55 63.5t77.5 39t89.5 13zM533 487q0 42 -17.5 73t-46.5 52t-66 31t-75 10t-75 -10.5t-66 -31
t-47 -51.5t-18 -73v-294q0 -42 18 -73t47 -52t66 -31t75 -10t75 10t66 30.5t46.5 52t17.5 73.5v294z" />
    <glyph glyph-name="one" unicode="1" horiz-adv-x="433" 
d="M236 643h-166v37h203v-680h-37v643z" />
    <glyph glyph-name="two" unicode="2" horiz-adv-x="523" 
d="M282 313q-89 -49 -134.5 -114t-45.5 -162h371v-37h-408v18q0 58 10 104t32.5 84t58.5 70t87 61q30 17 59.5 34.5t52 38.5t36.5 46t14 58q0 35 -11 59.5t-30.5 40t-46 22.5t-58.5 7q-25 0 -50 -6.5t-46.5 -17.5t-40 -25t-30.5 -28l-25 28q35 36 85.5 61t105.5 25
q37 0 70.5 -9.5t58.5 -29.5t40 -51.5t15 -75.5q0 -38 -15 -68t-39 -54t-54.5 -43t-61.5 -36z" />
    <glyph glyph-name="three" unicode="3" horiz-adv-x="574" 
d="M491 490q0 -27 -10.5 -49.5t-27.5 -40t-38.5 -29.5t-43.5 -18q23 -6 45.5 -17t40.5 -27.5t29.5 -40t11.5 -53.5v-76q0 -36 -20 -64t-51 -46.5t-69.5 -28t-74.5 -9.5q-44 0 -83.5 10.5t-69.5 30.5t-47.5 48t-17.5 63h37q0 -27 15.5 -48.5t40.5 -36t58 -22.5t67 -8
q28 0 59.5 6.5t57.5 20.5t43.5 35t17.5 49v76q0 31 -17 54t-42.5 38t-56 22.5t-57.5 7.5h-77v37h77q28 0 57.5 7.5t53.5 22.5t39.5 36.5t15.5 49.5v44q0 32 -14 55t-37 37t-53.5 20.5t-62.5 6.5q-28 0 -59 -8t-57 -23t-42.5 -37t-16.5 -51h-37q0 36 19.5 65t50 49t68.5 31
t74 11q40 0 76.5 -9.5t65 -29t45.5 -48.5t17 -69v-44z" />
    <glyph glyph-name="four" unicode="4" horiz-adv-x="532" 
d="M389 253h123v-37h-123v-215h-37v215h-332v37l305 427h64v-427zM352 646h-7l-282 -393h289v393z" />
    <glyph glyph-name="five" unicode="5" horiz-adv-x="561" 
d="M300 399q39 0 74 -12t60.5 -34t40.5 -53.5t15 -70.5v-69q0 -40 -18 -71.5t-47.5 -53.5t-67.5 -33.5t-77 -11.5q-41 0 -79 11t-67 32.5t-46.5 53.5t-17.5 73h37q0 -31 13.5 -56t37 -42t55 -26t67.5 -9q32 0 62.5 9t55.5 26t40 41.5t15 56.5v69q0 32 -12 56.5t-33 41.5
t-48.5 26t-59.5 9h-203l32 318h319v-37h-285l-25 -244h162z" />
    <glyph glyph-name="six" unicode="6" horiz-adv-x="574" 
d="M292 425q39 0 76 -10.5t66 -31.5t47 -52.5t18 -73.5v-100q0 -42 -18 -73.5t-47 -52.5t-66 -31t-76 -10t-76 10t-66 31t-47 52.5t-18 73.5v378q0 36 16 64.5t43.5 49t65.5 31t82 10.5q48 0 91.5 -18.5t71.5 -47.5l-25 -30q-23 26 -61 42.5t-77 16.5q-36 0 -67.5 -7.5
t-54 -22.5t-35.5 -37t-13 -51v-181q32 35 77 53t93 18zM462 257q0 35 -15 59.5t-39 40.5t-54.5 23.5t-61.5 7.5t-61.5 -9t-54.5 -26t-39 -41t-15 -55v-100q0 -35 15 -59.5t39 -40.5t54.5 -23t61.5 -7t61.5 7t54.5 23t39 40.5t15 59.5v100z" />
    <glyph glyph-name="seven" unicode="7" horiz-adv-x="451" 
d="M10 680h411l-227 -680h-44l216 643h-356v37z" />
    <glyph glyph-name="eight" unicode="8" horiz-adv-x="584" 
d="M484 490q0 -46 -27.5 -81.5t-69.5 -54.5q45 -18 78 -54t33 -85v-67q0 -42 -18 -71.5t-47.5 -49t-66 -28.5t-74.5 -9t-75 9t-66.5 28.5t-47.5 49t-18 71.5v67q0 49 32.5 85t79.5 54q-42 19 -70 54.5t-28 81.5v42q0 40 16.5 69.5t43.5 49t62 29.5t71 10t70.5 -10
t61.5 -29.5t43.5 -49t16.5 -69.5v-42v0zM461 215q0 28 -14 50t-36.5 37.5t-51 23.5t-56.5 8h-22q-28 0 -56.5 -8t-51.5 -23.5t-37 -37.5t-14 -50v-67q0 -34 15.5 -57t39.5 -37t54.5 -20.5t60.5 -6.5t60 6.5t54.5 20.5t39.5 37t15 57v67zM136 490q0 -27 12.5 -48.5t33 -36.5
t46.5 -23.5t53 -10.5h22q27 2 52.5 10.5t46 23.5t33 36.5t12.5 48.5v42q0 32 -13.5 55t-35.5 37.5t-49.5 21.5t-56.5 7q-28 0 -56 -7t-50.5 -21.5t-36 -37.5t-13.5 -55v-42v0z" />
    <glyph glyph-name="nine" unicode="9" horiz-adv-x="574" 
d="M282 690q39 0 75.5 -11.5t65.5 -33.5t46.5 -52.5t17.5 -69.5v-366q0 -42 -17.5 -73.5t-46.5 -52.5t-65.5 -31t-75.5 -10q-24 0 -50 4t-51 12t-47.5 20t-38.5 29l27 29q12 -9 26.5 -19t34 -18.5t44 -14t55.5 -5.5t61 7t54 23t38.5 40.5t14.5 59.5v152q-32 -36 -76.5 -53.5
t-91.5 -17.5q-39 0 -76 10t-66.5 31t-47 52.5t-17.5 74.5v117q0 39 17.5 69.5t47 52.5t66.5 33.5t76 11.5zM450 523q0 31 -14.5 55t-38.5 40.5t-54 25.5t-61 9t-61.5 -8.5t-54.5 -25t-39 -41t-15 -55.5v-117q0 -35 15 -60t39 -40.5t54.5 -23t61.5 -7.5t61 9t54 25.5t38.5 41
t14.5 55.5v117z" />
    <glyph glyph-name="colon" unicode=":" horiz-adv-x="268" 
d="M103 96h70v-96h-70v96zM103 490h70v-94h-70v94z" />
    <glyph glyph-name="semicolon" unicode=";" horiz-adv-x="290" 
d="M195 356h-59v97h59v-97zM181 70v-26q0 -34 -3 -58t-9 -42t-14.5 -32t-20.5 -28l-25 17q9 13 15 24.5t9.5 25t5.5 29.5t2 37v53h40z" />
    <glyph glyph-name="less" unicode="&#x3c;" horiz-adv-x="602" 
d="M528 -13l-473 252l451 261l19 -31l-393 -229l415 -220z" />
    <glyph glyph-name="equal" unicode="=" horiz-adv-x="656" 
d="M55 490h546v-37h-546v37zM55 270h546v-37h-546v37z" />
    <glyph glyph-name="greater" unicode="&#x3e;" horiz-adv-x="573" 
d="M518 239l-444 -252l-19 33l390 220l-368 229l21 31z" />
    <glyph glyph-name="question" unicode="?" horiz-adv-x="378" 
d="M173 690q72 0 111 -34.5t39 -106.5v-56q0 -34 -21 -57.5t-47 -44.5l-30 -26t-27 -27t-19 -30.5t-7 -35.5v-79h-39v91q0 20 8 37t21 32.5t28.5 29.5t31.5 27q22 18 43 38t21 49v52q0 50 -31.5 77t-81.5 27q-35 0 -65.5 -15t-50.5 -42l-27 25q27 32 64 50.5t79 18.5z
M113 85h78v-85h-78v85z" />
    <glyph glyph-name="at" unicode="@" horiz-adv-x="814" 
d="M416 693q74 0 136 -21t107 -58.5t70.5 -89t25.5 -113.5q0 -117 -35 -181.5t-121 -64.5q-33 0 -57.5 16.5t-38.5 42.5q-26 -33 -66.5 -53t-88.5 -20q-33 0 -56.5 9t-38 24t-21 34.5t-6.5 41.5q0 5 2 19l4.5 31.5t5.5 36.5t6 32q6 32 23 61t41.5 50.5t56 34.5t67.5 13
q61 0 93.5 -27.5t32.5 -75.5q0 -11 -4 -32t-9 -46q-5 -26 -10 -50t-5 -35q0 -28 19.5 -49t49.5 -21q29 0 51 11t37 36t23 65.5t8 98.5q0 54 -22.5 98.5t-62.5 76.5t-95.5 50t-121.5 18q-65 0 -119.5 -21.5t-95.5 -58.5t-66.5 -86t-31.5 -105q-4 -32 -7.5 -64t-3.5 -64
q0 -49 25.5 -91.5t69.5 -74t102.5 -49t124.5 -17.5q88 0 162 40l19 -32q-41 -23 -87 -34t-94 -11q-74 0 -139.5 20t-114 56t-77 85t-28.5 106q0 33 3.5 66t7.5 66q8 63 36 118.5t74 97.5t107 66t133 24zM348 188q28 0 53 8.5t45 23.5t33.5 35.5t17.5 44.5q8 32 16 67.5
t8 66.5q0 36 -22.5 51.5t-66.5 15.5q-28 0 -53.5 -10.5t-45.5 -28t-33.5 -41t-18.5 -49.5q-3 -13 -6 -30.5t-5.5 -34t-4.5 -28.5t-2 -14q0 -38 22 -57.5t63 -19.5z" />
    <glyph glyph-name="A" unicode="A" horiz-adv-x="609" 
d="M325 690l259 -690h-42l-92 242h-288l-94 -242h-43l265 690h35zM436 279l-129 351l-131 -351h260z" />
    <glyph glyph-name="B" unicode="B" horiz-adv-x="579" 
d="M487 487q0 -47 -27.5 -83t-68.5 -49q53 -17 87.5 -55.5t34.5 -95.5v-39q0 -40 -15.5 -71t-41 -52t-59 -31.5t-69.5 -10.5h-233v680h207q38 0 71.5 -10.5t59 -31.5t40 -52.5t14.5 -73.5v-25v0zM476 203q0 32 -14 56t-36.5 40.5t-52 25t-61.5 8.5h-180v-296h196
q27 0 53.5 8t47.5 24t34 40t13 55v39zM132 370h170q27 0 53.5 8t47.5 23.5t34 37t13 48.5v25q0 35 -11.5 60t-31 40.5t-46.5 23t-59 7.5h-170v-273z" />
    <glyph glyph-name="C" unicode="C" horiz-adv-x="555" 
d="M301 653q-40 0 -76 -12t-63.5 -34.5t-43.5 -54t-16 -71.5v-282q0 -42 15.5 -74.5t42.5 -54t63.5 -32.5t78.5 -11q53 0 102 14t84 45l20 -31q-42 -36 -94 -50.5t-112 -14.5q-51 0 -94 13.5t-75 40t-50 65.5t-18 90v282q0 48 18.5 86.5t51 65.5t75.5 42t91 15
q63 0 116.5 -19.5t89.5 -61.5l-24 -29q-31 35 -79 54t-103 19z" />
    <glyph glyph-name="D" unicode="D" horiz-adv-x="612" 
d="M291 680q50 0 96.5 -14t81.5 -41t56 -66t21 -89v-262q0 -52 -20.5 -91.5t-55.5 -65t-81.5 -38.5t-98.5 -13h-195v680h196zM509 470q0 42 -18.5 74t-49 54t-69.5 33.5t-81 11.5h-159v-606h158q44 0 83.5 10t69.5 31t48 53.5t18 76.5v262z" />
    <glyph glyph-name="E" unicode="E" horiz-adv-x="511" 
d="M132 330v-293h324v-37h-361v680h335v-37h-298v-276h251v-37h-251z" />
    <glyph glyph-name="F" unicode="F" horiz-adv-x="464" 
d="M429 643h-297v-265h251v-37h-250v-341h-38v680h334v-37z" />
    <glyph glyph-name="G" unicode="G" horiz-adv-x="631" 
d="M318 335h238v-272q-18 -11 -40 -24t-50 -24t-63.5 -18t-81.5 -7q-53 0 -99.5 16.5t-81.5 45t-55 66.5t-20 81v282q0 42 20.5 80t56 66.5t81.5 45.5t97 17q30 0 59.5 -5.5t56.5 -16t49.5 -25t37.5 -33.5l-27 -29q-27 32 -75.5 52t-100.5 20q-42 0 -81.5 -14t-70 -38
t-48.5 -55t-18 -65v-282q0 -36 17.5 -67.5t47 -54.5t69.5 -36.5t85 -13.5q72 0 119 17.5t79 38.5v215h-201v37z" />
    <glyph glyph-name="H" unicode="H" horiz-adv-x="692" 
d="M558 680h37v-680h-37v309h-426v-309h-37v680h37v-334h426v334z" />
    <glyph glyph-name="I" unicode="I" horiz-adv-x="269" 
d="M115 680h37v-680h-37v680z" />
    <glyph glyph-name="J" unicode="J" horiz-adv-x="490" 
d="M358 680h37v-528q0 -37 -15.5 -67t-41 -51t-59 -32.5t-69.5 -11.5q-37 0 -70.5 11.5t-59 32.5t-40.5 51t-15 67h37q0 -28 12.5 -51.5t33 -39.5t47.5 -25t55 -9t54.5 9t47.5 25t33.5 39.5t12.5 51.5v528z" />
    <glyph glyph-name="K" unicode="K" horiz-adv-x="602" 
d="M560 680l-335 -320l372 -360h-53l-347 334l-65 -59v-275h-37v680h37v-359l374 359h54z" />
    <glyph glyph-name="L" unicode="L" horiz-adv-x="487" 
d="M132 680v-643h350v-37h-387v680h37z" />
    <glyph glyph-name="M" unicode="M" horiz-adv-x="793" 
d="M141 680l255 -433l254 433h47v-680h-37v619l-253 -434h-22l-253 431v-616h-37v680h46z" />
    <glyph glyph-name="N" unicode="N" horiz-adv-x="717" 
d="M585 680h37v-680h-46l-444 629v-629h-37v680h48l442 -623v623z" />
    <glyph glyph-name="O" unicode="O" horiz-adv-x="659" 
d="M338 690q48 0 94 -15t81.5 -42t57.5 -66t22 -87v-282q0 -50 -21 -89t-56.5 -65.5t-81.5 -40t-96 -13.5h-16q-51 0 -97.5 13.5t-82 40t-56.5 65t-21 89.5v282q0 48 22 87t58 66t82 42t94 15h17v0zM556 480q0 40 -19 72t-50 54.5t-70 34.5t-79 12h-17q-40 0 -79.5 -12
t-70.5 -34.5t-50 -54.5t-19 -72v-282q0 -42 18.5 -74t49 -53.5t70.5 -32.5t82 -11h16q42 0 81 11t69.5 32.5t49 53.5t18.5 74v282z" />
    <glyph glyph-name="P" unicode="P" horiz-adv-x="542" 
d="M301 680q37 0 70.5 -11.5t59 -33t40.5 -52t15 -67.5v-73q0 -37 -14.5 -65.5t-39.5 -47.5t-58.5 -28.5t-70.5 -9.5h-171v-292h-37v680h206zM449 516q0 29 -12.5 52t-33 40t-47 26t-55.5 9h-169v-314h169q29 0 56 7t47.5 21t32.5 35.5t12 50.5v73z" />
    <glyph glyph-name="Q" unicode="Q" horiz-adv-x="659" 
d="M472 18q-62 -28 -134 -28h-16q-51 0 -97.5 13.5t-82 40t-56.5 65t-21 89.5v282q0 48 22 87t58 66t82 42t94 15h17q48 0 94 -15t81.5 -42t57.5 -66t22 -87v-282q0 -54 -24 -95t-64 -67l16 -20q15 -19 26 -30t22 -16t24 -6.5t32 -1.5v-37q-25 0 -43 2.5t-33 10t-29 21.5
t-31 36zM556 480q0 40 -19 72t-50 54.5t-70 34.5t-79 12h-17q-40 0 -79.5 -12t-70.5 -34.5t-50 -54.5t-19 -72v-282q0 -42 18.5 -74t49 -53.5t70.5 -32.5t82 -11h16q60 0 111 21l-101 136l29 22l106 -140q32 22 52.5 54.5t20.5 77.5v282z" />
    <glyph glyph-name="R" unicode="R" horiz-adv-x="589" 
d="M525 461q0 -34 -13 -61t-35.5 -46t-52.5 -30t-63 -14l173 -310h-44l-173 310h-184v-310h-37v680h247q36 0 69 -12t58 -34t40 -52t15 -66v-55v0zM133 347h208q27 0 53.5 7.5t47.5 22t33.5 35.5t12.5 49v55q0 27 -12.5 50.5t-33.5 40.5t-47.5 26.5t-53.5 9.5h-208v-296z
" />
    <glyph glyph-name="S" unicode="S" horiz-adv-x="574" 
d="M318 368q45 -15 82 -29t63 -34.5t40.5 -51.5t14.5 -80q0 -47 -17 -81t-46.5 -56.5t-69.5 -33.5t-87 -11q-37 0 -73 6t-68 20t-57.5 36t-42.5 54l34 18q15 -26 38 -44.5t51 -30t58.5 -17t60.5 -5.5q38 0 71.5 8t58 25.5t38.5 45t14 66.5t-13.5 64.5t-38 43t-58.5 30.5
t-76 26q-43 14 -82.5 27.5t-68.5 34t-46.5 50t-17.5 74.5q0 44 16.5 76t45 52t67 29.5t83.5 9.5q71 0 124.5 -27t89.5 -69l-27 -27q-30 36 -78.5 61t-109.5 25q-35 0 -66.5 -7t-55.5 -23t-38 -40.5t-14 -59.5q0 -38 17 -62t45.5 -40.5t64.5 -28t74 -24.5z" />
    <glyph glyph-name="T" unicode="T" horiz-adv-x="532" 
d="M15 642v37h502v-37h-234v-642h-37v642h-231z" />
    <glyph glyph-name="U" unicode="U" horiz-adv-x="692" 
d="M559 680h37v-481q0 -52 -19.5 -91t-53 -65.5t-78.5 -39.5t-97 -13q-53 0 -99.5 12.5t-80.5 38.5t-53.5 65.5t-19.5 92.5v481h37v-481q0 -44 17.5 -76.5t47 -53.5t68.5 -31.5t83 -10.5q41 0 79 11.5t67.5 33.5t47 54t17.5 73v481z" />
    <glyph glyph-name="V" unicode="V" horiz-adv-x="601" 
d="M63 680l235 -622l240 622h38l-260 -680h-36l-255 680h38z" />
    <glyph glyph-name="W" unicode="W" horiz-adv-x="872" 
d="M449 680l175 -627l173 627h40l-189 -680h-49l-168 616l-173 -616h-48l-185 680h40l170 -627l177 627h37z" />
    <glyph glyph-name="X" unicode="X" horiz-adv-x="610" 
d="M107 680l205 -305l210 305h46l-234 -337l234 -343h-46l-210 311l-217 -311h-47l240 343l-227 337h46z" />
    <glyph glyph-name="Y" unicode="Y" horiz-adv-x="625" 
d="M287 277l-262 403h45l236 -362l239 362h45l-266 -403v-277h-37v277z" />
    <glyph glyph-name="Z" unicode="Z" horiz-adv-x="584" 
d="M515 680v-29l-393 -614h407v-37h-474v16l406 627h-389v37h443z" />
    <glyph glyph-name="bracketleft" unicode="[" horiz-adv-x="267" 
d="M212 680v-37h-80v-775h76v-37h-116v849h120z" />
    <glyph glyph-name="backslash" unicode="\" horiz-adv-x="364" 
d="M35 680h41l253 -680h-41z" />
    <glyph glyph-name="bracketright" unicode="]" horiz-adv-x="265" 
d="M173 680v-839h-117v37h76v765h-77v37h118z" />
    <glyph glyph-name="asciicircum" unicode="^" horiz-adv-x="384" 
d="M99 458h-44l140 234l134 -234h-43l-92 160z" />
    <glyph glyph-name="underscore" unicode="_" horiz-adv-x="519" 
d="M55 -24h409v-38h-409v38z" />
    <glyph glyph-name="grave" unicode="`" horiz-adv-x="229" 
d="M89 700l90 -143l-30 -21l-99 133z" />
    <glyph glyph-name="a" unicode="a" horiz-adv-x="493" 
d="M255 500q76 0 120 -44t44 -120v-336h-38v68q-31 -45 -70.5 -61.5t-88.5 -16.5q-34 0 -64 9.5t-53 28t-36.5 45t-13.5 60.5v92l326 57v54q0 62 -32 94.5t-94 32.5q-27 0 -52.5 -5.5t-47 -13.5t-38.5 -16.5t-28 -15.5l-15 34q13 8 33 17.5t44 17.5t51 13.5t53 5.5zM382 244
l-290 -51v-60q0 -26 11 -45.5t29 -33t42 -20.5t50 -7q29 0 57 9t50.5 26t36.5 40.5t14 52.5v89z" />
    <glyph glyph-name="b" unicode="b" horiz-adv-x="541" 
d="M295 501q39 0 74 -11t61 -32.5t41 -52.5t15 -70v-178q0 -40 -15 -71t-41 -52.5t-61 -32.5t-74 -11q-56 0 -102.5 19.5t-69.5 56.5v-66h-37v720h37v-305q12 21 31 37.5t42 27t48.5 16t50.5 5.5zM449 335q0 31 -12.5 55t-33.5 40.5t-49 25t-59 8.5t-62 -8.5t-55.5 -25
t-39.5 -40.5t-15 -55v-178q0 -33 14.5 -57t38.5 -40.5t55 -24.5t64 -8q31 0 59 8.5t49 25t33.5 41t12.5 55.5v178z" />
    <glyph glyph-name="c" unicode="c" horiz-adv-x="434" 
d="M241 463q-31 0 -58 -9t-47 -26t-32 -41.5t-12 -54.5v-175q0 -33 11.5 -57.5t31.5 -40.5t47.5 -24t60.5 -8q35 0 66.5 9t65.5 37l20 -31q-39 -33 -73 -42.5t-79 -9.5q-42 0 -76.5 10.5t-59 31.5t-38.5 52t-14 73v175q0 38 14.5 69t39.5 53t59 34t73 12q50 0 87.5 -14.5
t70.5 -52.5l-29 -27q-25 28 -59 42.5t-70 14.5z" />
    <glyph glyph-name="d" unicode="d" horiz-adv-x="527" 
d="M414 720h37v-720h-37v70q-27 -44 -72.5 -62t-94.5 -18q-42 0 -77 12t-60.5 35t-40 55.5t-14.5 74.5v158q0 41 14.5 73.5t40 55.5t61 35t76.5 12q49 0 95 -17.5t72 -58.5v295zM415 335q0 33 -14 57.5t-37 40t-53.5 23.5t-63.5 8t-61 -9.5t-49 -27.5t-33 -44t-12 -58v-158
q0 -33 11.5 -59t32.5 -44t49.5 -27.5t61.5 -9.5q32 0 62.5 8t54 24.5t37.5 40.5t14 57v178z" />
    <glyph glyph-name="e" unicode="e" horiz-adv-x="482" 
d="M268 27q30 0 54 5t43 12t31.5 14.5t19.5 13.5l21 -27q-32 -28 -79 -41.5t-90 -13.5q-42 0 -80.5 10t-68 31t-47 52.5t-17.5 74.5v183q0 34 15 63t41.5 50.5t62.5 33.5t77 12t74.5 -11.5t57.5 -32.5t37.5 -50.5t13.5 -64.5v-61l-342 -49v-73q0 -34 14.5 -59t39 -41
t56.5 -23.5t66 -7.5zM251 463q-33 0 -61.5 -9.5t-50.5 -26t-34.5 -38.5t-12.5 -48v-73l305 43v29q0 25 -11.5 47.5t-31 39t-46 26.5t-57.5 10z" />
    <glyph glyph-name="f" unicode="f" horiz-adv-x="281" 
d="M117 587q0 36 11.5 63.5t32 46t48 28t58.5 9.5q18 0 41 -5t43 -13l-8 -32q-38 13 -75 13q-52 0 -83 -27.5t-31 -82.5v-97h119v-37h-119v-453h-37v453h-107v37h107v97z" />
    <glyph glyph-name="g" unicode="g" horiz-adv-x="521" 
d="M487 -21v-76q0 -35 -18.5 -59t-47.5 -39t-64.5 -22t-70.5 -7h-37q-37 0 -72 7t-62 22.5t-43.5 41t-16.5 61.5q0 57 27.5 84.5t81.5 36.5q-28 12 -46.5 31.5t-18.5 52.5q0 23 13 41t37 25q-38 17 -55.5 48.5t-17.5 76.5v46q0 37 15 65t41 47.5t60 29.5t71 10q62 0 117 -28
l111 34l11 -36l-89 -27q17 -21 27.5 -43.5t10.5 -48.5v-49q0 -37 -14.5 -64.5t-39 -46.5t-57.5 -28.5t-69 -9.5q-20 0 -40.5 1.5t-37.5 6.5q-22 -5 -38.5 -16t-16.5 -34q0 -15 9 -27t22 -20t27 -13t23 -7zM113 304q0 -51 40.5 -81.5t114.5 -30.5q30 0 56.5 6t46.5 19.5
t31.5 35t11.5 51.5v49q-3 29 -16 50t-33.5 34.5t-46.5 20.5t-55 7q-28 0 -55 -7t-48 -21t-34 -35t-13 -49v-49zM293 -187q27 0 53.5 4t48 14t36.5 27t18 44v50l-223 56q-23 -1 -47 -5t-43.5 -15t-31.5 -30t-12 -50q0 -27 14 -45t36.5 -29.5t50.5 -16t56 -4.5h44v0z" />
    <glyph glyph-name="h" unicode="h" horiz-adv-x="554" 
d="M309 501q78 0 124 -44t46 -122v-335h-37v335q0 62 -35.5 95.5t-97.5 33.5q-31 0 -64.5 -12.5t-60.5 -34t-44.5 -50t-17.5 -59.5v-308h-37v720h37v-328q30 51 77.5 80t109.5 29z" />
    <glyph glyph-name="i" unicode="i" 
d="M101 490h37v-490h-37v490zM95 680h47v-57h-47v57z" />
    <glyph glyph-name="j" unicode="j" horiz-adv-x="261" 
d="M129 490h37v-447q0 -54 -10 -91.5t-31.5 -65.5t-55.5 -50.5t-83 -45.5l-16 31q45 24 75 43t49 42t27 55t8 83v446zM124 680h41v-57h-41v57z" />
    <glyph glyph-name="k" unicode="k" horiz-adv-x="432" 
d="M176 260l251 -260h-50l-232 242h-23v-242h-37v710h37v-431h24l216 211h46z" />
    <glyph glyph-name="l" unicode="l" horiz-adv-x="238" 
d="M100 710h37v-710h-37v710z" />
    <glyph glyph-name="m" unicode="m" horiz-adv-x="854" 
d="M622 501q75 0 116 -45.5t41 -120.5v-335h-37v335q0 55 -32.5 92t-87.5 37q-36 0 -67 -9.5t-54.5 -28t-37 -46t-13.5 -62.5v-318h-37v345q0 55 -33 87t-88 32q-30 0 -60 -13.5t-54.5 -35t-39.5 -49.5t-15 -58v-308h-37v490h37v-96q27 48 70 77.5t99 29.5t94.5 -23
t55.5 -76q32 53 74 76t106 23z" />
    <glyph glyph-name="n" unicode="n" horiz-adv-x="555" 
d="M309 501q78 0 124 -44t46 -122v-335h-37v335q0 62 -35.5 95.5t-97.5 33.5q-31 0 -64 -12.5t-60 -34t-44.5 -50t-17.5 -59.5v-308h-38v490h38v-103q30 51 77.5 82.5t108.5 31.5z" />
    <glyph glyph-name="o" unicode="o" horiz-adv-x="504" 
d="M252 501q38 0 73 -12t62.5 -33.5t44 -52t16.5 -68.5v-175q0 -38 -16.5 -69t-43.5 -53t-62.5 -34t-73.5 -12t-73.5 12t-63 34t-44 53t-16.5 69v175q0 38 16.5 68.5t44.5 52t63.5 33.5t72.5 12zM411 335q0 30 -13.5 54t-36 40.5t-51 25.5t-58.5 9t-58.5 -9t-51 -26
t-36.5 -40.5t-14 -53.5v-175q0 -30 13.5 -54.5t36 -41.5t51.5 -26t59 -9t58.5 9t51 26t36 41.5t13.5 54.5v175z" />
    <glyph glyph-name="p" unicode="p" horiz-adv-x="538" 
d="M290 500q41 0 75.5 -13t60.5 -35.5t40.5 -53t14.5 -65.5v-176q0 -35 -14.5 -65.5t-40.5 -53t-60.5 -35.5t-75.5 -13q-25 0 -51 5.5t-49 16t-41 24.5t-27 31v-287h-37v710h37v-80q11 19 29 35.5t40.5 28.5t48 19t50.5 7zM444 333q0 29 -12 53t-33 41t-49 26.5t-60 9.5
q-33 0 -63.5 -11t-54 -29t-37 -42t-13.5 -50v-176q0 -30 14 -53.5t37.5 -40t53.5 -25.5t63 -9q32 0 60 10t49 27.5t33 41.5t12 51v176z" />
    <glyph glyph-name="q" unicode="q" horiz-adv-x="507" 
d="M247 502q22 0 46.5 -5t47 -14.5t42 -24t32.5 -33.5v65h37v-710h-37v287q-12 -19 -31.5 -33t-42.5 -23t-47 -13.5t-47 -4.5q-38 0 -72.5 12t-61 33.5t-42.5 52.5t-16 69v175q0 38 16 68.5t42.5 52.5t61 34t72.5 12zM92 160q0 -30 13 -54t35 -41t49.5 -26t57.5 -9
q31 0 61 8.5t53.5 25t38 41t14.5 55.5v175q0 30 -15 54t-38.5 41t-53.5 26t-60 9q-31 0 -59 -9t-49.5 -26t-34 -41t-12.5 -54v-175z" />
    <glyph glyph-name="r" unicode="r" horiz-adv-x="317" 
d="M260 500q27 0 52 -6l-6 -41q-11 2 -24 3.5t-24 1.5q-31 0 -55.5 -17t-41 -43t-25 -58.5t-8.5 -63.5v-276h-38v490h38v-113q7 23 19.5 45.5t29 39.5t37.5 27.5t46 10.5z" />
    <glyph glyph-name="s" unicode="s" horiz-adv-x="432" 
d="M230 273q32 -11 61 -22.5t51.5 -27.5t36 -38.5t13.5 -55.5q0 -37 -13.5 -63t-37.5 -43t-56 -25t-68 -8q-51 0 -96.5 18.5t-80.5 53.5l17 30q29 -31 73 -48t88 -17q29 0 54 4.5t44 16t29.5 31t10.5 48.5q0 27 -12.5 44t-33 29t-45.5 20t-51 17q-30 11 -58 21.5t-49 25.5
t-33.5 36.5t-12.5 53.5q0 34 12.5 58t34.5 39t51.5 22t63.5 7q16 0 36 -3.5t40 -10t38.5 -15t32.5 -17.5l-17 -39q-29 19 -62 33.5t-68 14.5q-27 0 -49.5 -4t-39.5 -13.5t-26.5 -26.5t-9.5 -44q0 -25 12 -41t31 -27t42.5 -18.5t46.5 -15.5z" />
    <glyph glyph-name="t" unicode="t" horiz-adv-x="349" 
d="M228 34q32 0 54 5.5t39 13.5l13 -33q-16 -7 -41 -15t-63 -8q-55 0 -85.5 33t-30.5 88v335h-94v37h94v150h37v-150h144v-37h-144v-338q0 -38 19.5 -59.5t57.5 -21.5z" />
    <glyph glyph-name="u" unicode="u" horiz-adv-x="547" 
d="M435 490h37v-332q0 -38 -16 -69t-43 -53t-62 -34t-73 -12t-73 12t-61.5 34t-42.5 53t-16 69v332h37v-332q0 -30 13 -54t35 -41.5t50 -26.5t58 -9t58.5 9t50 26t35 41.5t13.5 54.5v332z" />
    <glyph glyph-name="v" unicode="v" horiz-adv-x="481" 
d="M241 58l174 432h41l-198 -490h-35l-198 490h41z" />
    <glyph glyph-name="w" unicode="w" horiz-adv-x="677" 
d="M486 61l126 429h40l-148 -491h-37l-128 424l-129 -424h-38l-147 491h40l127 -429l128 429h35z" />
    <glyph glyph-name="x" unicode="x" horiz-adv-x="421" 
d="M78 490l133 -203l133 203h48l-158 -235l166 -255h-46l-143 223l-143 -223h-46l166 255l-155 235h45z" />
    <glyph glyph-name="y" unicode="y" horiz-adv-x="439" 
d="M197 -18l-175 508h41l158 -457l161 457h42l-197 -544q-26 -74 -82.5 -116.5t-134.5 -42.5v37q66 0 111.5 36.5t68.5 99.5z" />
    <glyph glyph-name="z" unicode="z" horiz-adv-x="463" 
d="M393 490v-25l-292 -429h313v-36h-365v30l293 428h-287v32h338z" />
    <glyph glyph-name="braceleft" unicode="{" horiz-adv-x="297" 
d="M242 695q-25 -18 -44.5 -35.5t-32.5 -38t-20 -44.5t-7 -55l24 -178l-33 -48l33 -42l-24 -203q2 -60 27.5 -100t76.5 -76l-14 -35q-32 23 -55.5 44.5t-38.5 46t-22.5 54t-7.5 68.5l22 189l-41 52l41 61l-22 165q0 38 7.5 67.5t23 54t39 46t54.5 43.5z" />
    <glyph glyph-name="bar" unicode="|" horiz-adv-x="227" 
d="M95 680h37v-827h-37v827z" />
    <glyph glyph-name="braceright" unicode="}" horiz-adv-x="299" 
d="M100 731q32 -22 55 -43.5t38.5 -46.5t23 -54t7.5 -67l-22 -165l41 -61l-41 -52l22 -189q0 -32 -5 -59.5t-19 -52.5t-38 -49.5t-62 -51.5l-14 35q52 36 76.5 76.5t27.5 99.5l-24 203l31 42l-31 48l24 178q0 24 -5 46t-16.5 43t-31.5 41.5t-51 42.5z" />
    <glyph glyph-name="asciitilde" unicode="~" horiz-adv-x="386" 
d="M126 636q-18 0 -29 -10.5t-18 -24.5l-33 19q17 28 35.5 43t45.5 15q18 0 34.5 -7.5t33 -17t33 -17.5t33.5 -8q12 2 20.5 10.5t16.5 22.5l34 -17q-11 -22 -30.5 -39t-45.5 -17q-22 0 -39.5 7.5t-32.5 16.5t-29 16.5t-29 7.5z" />
    <glyph glyph-name="uni00A0" unicode="&#xa0;" horiz-adv-x="218" 
 />
    <glyph glyph-name="exclamdown" unicode="&#xa1;" 
d="M107 -192l9 468h38l9 -468h-56zM168 426h-63v64h63v-64z" />
    <glyph glyph-name="cent" unicode="&#xa2;" horiz-adv-x="466" 
d="M258 463q-33 0 -63 -11.5t-53 -31t-36.5 -45t-13.5 -53.5v-153q0 -30 13 -56t35.5 -44.5t53 -29.5t64.5 -11q37 0 69.5 10t56.5 33l24 -30q-29 -28 -67.5 -39t-82.5 -11q-19 0 -37 3l-22 -132l-38 5l22 136q-57 20 -92.5 64.5t-35.5 101.5v153q0 36 16.5 68t44 56.5
t64.5 39t78 14.5h17l22 136l38 -5l-23 -139q62 -17 99 -66l-27 -24q-22 29 -55.5 45t-70.5 16z" />
    <glyph glyph-name="sterling" unicode="&#xa3;" horiz-adv-x="549" 
d="M265 208q0 -23 -1.5 -47t-7.5 -46.5t-19.5 -42.5t-37.5 -35h295v-37h-420v37q49 0 79 12t46.5 34.5t22 53.5t5.5 69l-9 97h-163v37h159l-13 138q0 44 18 82t50 66t77.5 44t99.5 16v-37q-46 0 -83.5 -13t-65 -35t-43 -52t-16.5 -65l14 -144h195v-37h-191q3 -43 6 -68
q2 -15 3 -27z" />
    <glyph glyph-name="yen" unicode="&#xa5;" horiz-adv-x="631" 
d="M83 331h200l-258 349h45l244 -328l239 328h53l-262 -349h206v-37h-218v-87h218v-37h-218v-170h-37v170h-212v37h212v87h-212v37z" />
    <glyph glyph-name="brokenbar" unicode="&#xa6;" horiz-adv-x="147" 
d="M55 208h37v-325h-37v325zM55 687h37v-325h-37v325z" />
    <glyph glyph-name="section" unicode="&#xa7;" horiz-adv-x="578" 
d="M351 342q33 -14 64 -29.5t56 -35t40 -43.5t15 -56q0 -17 -3.5 -36t-14 -37t-29 -33.5t-48.5 -24.5q20 -23 30.5 -53.5t10.5 -60.5q0 -38 -15 -68t-40.5 -51t-59.5 -32.5t-72 -11.5q-32 0 -61.5 7.5t-54.5 21.5t-43.5 33.5t-28.5 43.5l35 14q16 -38 57.5 -60.5t95.5 -22.5
q32 0 59 9t47.5 25.5t32 39.5t11.5 52q0 37 -19.5 66.5t-51 52.5t-69.5 41t-76 33q-25 10 -53 22.5t-50.5 31.5t-37.5 45.5t-15 65.5q0 23 9 43.5t23 35.5t31 25t33 12q-21 24 -29.5 54.5t-8.5 57.5q0 41 14 73t39 53.5t60 32.5t76 11q65 0 111 -27t66 -74l-35 -15
q-16 37 -51.5 58t-89.5 21q-31 0 -59 -9.5t-49 -27t-33 -42t-12 -53.5q0 -37 18.5 -65t47 -49t62.5 -36.5t65 -27.5zM489 163q0 27 -8.5 46t-26.5 35.5t-47.5 31.5t-71.5 33q-37 15 -73.5 33t-67.5 42q-19 -1 -36 -10t-30 -22t-20.5 -29t-7.5 -33q0 -25 9 -43.5t28.5 -33.5
t49.5 -29.5t72 -32.5q37 -16 74 -34t67 -42q19 2 35 10t28 20t19 27.5t7 30.5z" />
    <glyph glyph-name="dieresis" unicode="&#xa8;" horiz-adv-x="320" 
d="M108 576h-58v64h58v-64zM270 576h-58v64h58v-64z" />
    <glyph glyph-name="copyright" unicode="&#xa9;" horiz-adv-x="805" 
d="M55 348q0 72 27.5 135.5t74.5 111t110.5 75t135.5 27.5t135 -27.5t110.5 -75t75 -111t27.5 -135.5t-27.5 -135t-75 -110.5t-110.5 -75t-135 -27.5t-135.5 27.5t-110.5 74.5t-74.5 110.5t-27.5 135.5zM92 348q0 -64 24.5 -120.5t67 -99t99.5 -67t121 -24.5t120.5 24.5
t98.5 67t66.5 99t24.5 120.5q0 65 -24.5 121.5t-67 99t-99 67t-120.5 24.5t-121 -24.5t-99 -67t-66.5 -99t-24.5 -121.5zM408 493q-31 0 -58 -10.5t-47.5 -28.5t-32 -41.5t-11.5 -48.5v-47q0 -28 12 -52t32.5 -41t48 -27t58.5 -10q35 0 70.5 11.5t58.5 33.5l20 -31
q-28 -26 -67.5 -38.5t-81.5 -12.5q-41 0 -75.5 13t-59.5 35.5t-39 53t-14 65.5v47q0 33 14.5 63t39.5 53t59 36.5t73 13.5q45 0 85 -15.5t66 -47.5l-22 -29q-20 26 -57 40.5t-72 14.5z" />
    <glyph glyph-name="ordfeminine" unicode="&#xaa;" horiz-adv-x="335" 
d="M168 690q48 0 77.5 -21.5t29.5 -68.5v-211h-33l-1 24q-17 -13 -38.5 -19.5t-44.5 -6.5q-21 0 -39.5 6.5t-32.5 17t-22.5 25t-8.5 30.5v74l181 27v18q0 41 -19 54t-49 13q-21 0 -44 -9t-34 -16l-16 36q15 8 41.5 16.5t52.5 10.5zM234 531l-141 -20v-45q0 -15 18.5 -27.5
t46.5 -12.5q13 0 26.5 3t24.5 8.5t18 13.5t7 17v63z" />
    <glyph glyph-name="guillemotleft" unicode="&#xab;" horiz-adv-x="452" 
d="M372 0l-156 174l156 180l25 -32l-124 -146l124 -144zM212 0l-157 174l157 180l25 -32l-125 -146l125 -144z" />
    <glyph glyph-name="logicalnot" unicode="&#xac;" horiz-adv-x="438" 
d="M55 328h328v-137h-37v100h-291v37z" />
    <glyph glyph-name="registered" unicode="&#xae;" horiz-adv-x="805" 
d="M55 348q0 72 27.5 135.5t74.5 111t110.5 75t135.5 27.5t135 -27.5t110.5 -75t75 -111t27.5 -135.5t-27.5 -135t-75 -110.5t-110.5 -75t-135 -27.5t-135.5 27.5t-110.5 74.5t-74.5 110.5t-27.5 135.5zM92 348q0 -64 24.5 -120.5t67 -99t99.5 -67t121 -24.5t120.5 24.5
t98.5 67t66.5 99t24.5 120.5q0 65 -24.5 121.5t-67 99t-99 67t-120.5 24.5t-121 -24.5t-99 -67t-66.5 -99t-24.5 -121.5zM550 420q0 -38 -26.5 -66t-69.5 -33l103 -168h-49l-100 166h-87v-166h-39v390h155q24 0 44.5 -9t35.5 -24t24 -34.5t9 -40.5v-15v0zM320 356h113
q15 0 29 5t25.5 13.5t18.5 20.5t7 26v13q-1 29 -24 50.5t-56 21.5h-113v-150z" />
    <glyph glyph-name="macron" unicode="&#xaf;" horiz-adv-x="470" 
d="M420 636h-370v37h370v-37z" />
    <glyph glyph-name="degree" unicode="&#xb0;" horiz-adv-x="354" 
d="M177 690q25 0 47.5 -8t39 -21.5t26 -31.5t9.5 -39v-31q0 -21 -9.5 -39t-26 -31.5t-39 -21.5t-47.5 -8t-47.5 8t-39 21.5t-26 31.5t-9.5 39v31q0 21 9.5 39t26 31.5t39 21.5t47.5 8zM261 590q0 26 -24.5 44.5t-59.5 18.5t-60 -18.5t-25 -44.5v-31q1 -27 25.5 -45t59.5 -18
t59.5 18.5t24.5 44.5v31z" />
    <glyph glyph-name="plusminus" unicode="&#xb1;" horiz-adv-x="534" 
d="M280 345h190v-37h-190v-191h-37v191h-188v37h188v178h37v-178zM55 37h424v-37h-424v37z" />
    <glyph glyph-name="twosuperior" unicode="&#xb2;" horiz-adv-x="498" 
d="M254 690q38 0 63 -8t39.5 -22.5t20 -33t5.5 -39.5q0 -22 -9.5 -39.5t-25 -31.5t-35 -24.5t-39.5 -19.5q-24 -10 -47 -21t-41 -24t-29.5 -29t-11.5 -37h238v-37h-275v37q0 28 12 49t31.5 37.5t44.5 29.5t51 23q18 7 35.5 15t31.5 18t23 23t9 29q0 13 -1.5 25t-10 21.5
t-27 15.5t-52.5 6q-32 0 -56 -12.5t-44 -41.5l-29 25q24 33 57.5 49.5t71.5 16.5z" />
    <glyph glyph-name="threesuperior" unicode="&#xb3;" horiz-adv-x="346" 
d="M309 608q0 -23 -6.5 -37.5t-16.5 -23t-22.5 -13t-23.5 -7.5q11 -3 24 -7.5t24 -14t18.5 -24.5t7.5 -39v-16q0 -23 -11.5 -39.5t-30 -27.5t-42.5 -16.5t-49 -5.5t-48.5 7t-41.5 20t-29 31t-11 40h37q0 -30 28 -45.5t65 -15.5q18 0 35 3t30.5 9t22 16t8.5 24v16
q0 16 -8 28.5t-21.5 21t-30 13t-33.5 4.5h-62v37h56q17 0 34 2.5t30.5 9t21.5 18.5t8 31v8q0 18 -7.5 29.5t-20.5 18t-29.5 9t-33.5 2.5q-18 0 -35 -5t-30 -13.5t-20.5 -20.5t-7.5 -27h-37q0 21 11 39.5t29 33t41.5 22.5t48.5 8t48 -4.5t41 -15.5t28.5 -29.5t10.5 -46.5v-7z
" />
    <glyph glyph-name="acute" unicode="&#xb4;" horiz-adv-x="228" 
d="M144 694l34 -26l-97 -127l-31 19z" />
    <glyph glyph-name="paragraph" unicode="&#xb6;" horiz-adv-x="496" 
d="M399 680v-680h-37v647h-88v-647h-37v378h-28q-68 0 -111 34t-43 96v37q0 27 10 51.5t29.5 43t48.5 29.5t66 11h190z" />
    <glyph glyph-name="periodcentered" unicode="&#xb7;" horiz-adv-x="177" 
d="M75 283h77v-84h-77v84z" />
    <glyph glyph-name="cedilla" unicode="&#xb8;" horiz-adv-x="211" 
d="M111 0l-17 -54q19 -8 34 -20q13 -11 23 -28t10 -42q0 -38 -27 -63t-69 -36l-12 28q10 3 22.5 8.5t23.5 13.5t18.5 18.5t7.5 23.5q0 22 -11.5 35.5t-25.5 21.5q-17 9 -38 13l20 81h41z" />
    <glyph glyph-name="onesuperior" unicode="&#xb9;" horiz-adv-x="263" 
d="M151 643h-116v37h153v-346h-37v309z" />
    <glyph glyph-name="ordmasculine" unicode="&#xba;" horiz-adv-x="355" 
d="M177 691q25 0 47.5 -8t39 -22t26 -32t9.5 -39v-102q0 -21 -9.5 -39t-26 -31.5t-38.5 -21.5t-48 -8q-25 0 -47.5 8t-39 21.5t-26 32.5t-9.5 40v100q0 21 9.5 39t26 32t39 22t47.5 8zM261 590q-2 29 -26.5 46.5t-57.5 17.5q-34 0 -59.5 -17.5t-25.5 -46.5v-102
q3 -29 27 -46t58 -17q35 0 59.5 18.5t24.5 46.5v100z" />
    <glyph glyph-name="guillemotright" unicode="&#xbb;" horiz-adv-x="446" 
d="M166 176l-123 146l24 32l158 -180l-158 -174l-24 32zM327 176l-123 146l24 32l157 -180l-157 -174l-24 32z" />
    <glyph glyph-name="onequarter" unicode="&#xbc;" horiz-adv-x="665" 
d="M151 643h-116v37h153v-346h-37v309zM65 0l418 680h47l-417 -680h-48zM538 143h77v-31h-77v-108h-37v108h-180v31l155 215h62v-215zM501 331h-5l-136 -188h141v188z" />
    <glyph glyph-name="onehalf" unicode="&#xbd;" horiz-adv-x="665" 
d="M151 643h-116v37h153v-346h-37v309zM59 0l418 680h47l-417 -680h-48zM487 366q38 0 63 -8t39.5 -22.5t20 -33t5.5 -39.5q0 -22 -9.5 -39.5t-25 -31.5t-35 -24.5t-39.5 -19.5q-24 -10 -47 -21t-41 -24t-29.5 -29t-11.5 -37h238v-37h-275v37q0 28 12 49t31.5 37.5
t44.5 29.5t51 23q18 7 35.5 15t31.5 18t23 23t9 29q0 13 -1.5 25t-10 21.5t-27 15.5t-52.5 6q-32 0 -56 -12.5t-44 -41.5l-29 25q24 33 57.5 49.5t71.5 16.5z" />
    <glyph glyph-name="threequarters" unicode="&#xbe;" horiz-adv-x="679" 
d="M298 608q0 -23 -6.5 -37.5t-16.5 -23t-22.5 -13t-23.5 -7.5q11 -3 24 -7.5t24 -14t18.5 -24.5t7.5 -39v-16q0 -23 -11.5 -39.5t-30 -27.5t-42.5 -16.5t-49 -5.5t-48.5 7t-41.5 20t-29 31t-11 40h37q0 -30 28 -45.5t65 -15.5q18 0 35 3t30.5 9t22 16t8.5 24v16
q0 16 -8 28.5t-21.5 21t-30 13t-33.5 4.5h-62v37h56q17 0 34 2.5t30.5 9t21.5 18.5t8 31v8q0 18 -7.5 29.5t-20.5 18t-29.5 9t-33.5 2.5q-18 0 -35 -5t-30 -13.5t-20.5 -20.5t-7.5 -27h-37q0 21 11 39.5t29 33t41.5 22.5t48.5 8t48 -4.5t41 -15.5t28.5 -29.5t10.5 -46.5v-7z
M121 0l418 680h47l-417 -680h-48zM562 142h77v-31h-77v-108h-37v108h-180v31l155 215h62v-215zM525 330h-5l-136 -188h141v188z" />
    <glyph glyph-name="questiondown" unicode="&#xbf;" horiz-adv-x="378" 
d="M203 -222q-80 0 -115.5 37t-35.5 103v76q0 18 6.5 33t17.5 28.5t25 25.5t29 24q14 11 27 22.5t23.5 25t16.5 28.5t6 34v81h39v-90q0 -19 -7.5 -36t-19.5 -32t-27.5 -29t-31.5 -27q-26 -22 -46.5 -44t-20.5 -48v-72q0 -35 12 -55t30 -31t37.5 -14t34.5 -3q35 0 67.5 19.5
t54.5 39.5l20 -28q-10 -11 -24.5 -23t-33 -22t-39.5 -16.5t-45 -6.5zM259 404h-78v86h78v-86z" />
    <glyph glyph-name="Agrave" unicode="&#xc0;" horiz-adv-x="609" 
d="M325 690l259 -690h-42l-92 242h-288l-94 -242h-43l265 690h35zM436 279l-129 351l-131 -351h260zM244 908l90 -143l-30 -21l-99 133z" />
    <glyph glyph-name="Aacute" unicode="&#xc1;" horiz-adv-x="609" 
d="M325 690l259 -690h-42l-92 242h-288l-94 -242h-43l265 690h35zM436 279l-129 351l-131 -351h260zM367 904l34 -26l-97 -127l-31 19z" />
    <glyph glyph-name="Acircumflex" unicode="&#xc2;" horiz-adv-x="609" 
d="M325 690l259 -690h-42l-92 242h-288l-94 -242h-43l265 690h35zM436 279l-129 351l-131 -351h260zM303 851l121 -81l-22 -29l-98 66l-100 -65l-20 28z" />
    <glyph glyph-name="Atilde" unicode="&#xc3;" horiz-adv-x="609" 
d="M325 690l259 -690h-42l-92 242h-288l-94 -242h-43l265 690h35zM436 279l-129 351l-131 -351h260zM241 806q-18 0 -29 -10.5t-18 -24.5l-33 19q17 28 35.5 43t45.5 15q18 0 34.5 -7.5t33 -17t33 -17.5t33.5 -8q12 2 20.5 10.5t16.5 22.5l34 -17q-11 -22 -30.5 -39
t-45.5 -17q-22 0 -39.5 7.5t-32.5 16.5t-29 16.5t-29 7.5z" />
    <glyph glyph-name="Adieresis" unicode="&#xc4;" horiz-adv-x="609" 
d="M325 690l259 -690h-42l-92 242h-288l-94 -242h-43l265 690h35zM436 279l-129 351l-131 -351h260zM252 745h-58v64h58v-64zM414 745h-58v64h58v-64z" />
    <glyph glyph-name="Aring" unicode="&#xc5;" horiz-adv-x="609" 
d="M325 690l259 -690h-42l-92 242h-288l-94 -242h-43l265 690h35zM436 279l-129 351l-131 -351h260zM304 748q-16 0 -30 6t-25 16.5t-17.5 25t-6.5 30.5q0 33 23.5 55t55.5 22t56 -22t24 -55q0 -32 -24 -55t-56 -23zM262 824q0 -17 13 -29t30 -12t29.5 12t12.5 29
q0 18 -12.5 31t-29.5 13t-30 -13t-13 -31z" />
    <glyph glyph-name="AE" unicode="&#xc6;" horiz-adv-x="884" 
d="M516 335v-298h323v-37h-360v210h-273l-139 -210h-44l440 680h350v-37h-297v-271h250v-37h-250zM479 247v390l-251 -390h251z" />
    <glyph glyph-name="Ccedilla" unicode="&#xc7;" horiz-adv-x="547" 
d="M301 653q-40 0 -76 -12t-63.5 -34.5t-43.5 -54t-16 -71.5v-282q0 -42 15.5 -74.5t42.5 -54t63.5 -32.5t78.5 -11q53 0 102 14t84 45l20 -31q-42 -36 -94 -50.5t-112 -14.5q-51 0 -94 13.5t-75 40t-50 65.5t-18 90v282q0 48 18.5 86.5t51 65.5t75.5 42t91 15
q63 0 116.5 -19.5t89.5 -61.5l-24 -29q-31 35 -79 54t-103 19zM317 0l-17 -54q19 -8 34 -20q13 -11 23 -28t10 -42q0 -38 -27 -63t-69 -36l-12 28q10 3 22.5 8.5t23.5 13.5t18.5 18.5t7.5 23.5q0 22 -11.5 35.5t-25.5 21.5q-17 9 -38 13l20 81h41z" />
    <glyph glyph-name="Egrave" unicode="&#xc8;" horiz-adv-x="511" 
d="M132 330v-293h324v-37h-361v680h335v-37h-298v-276h251v-37h-251zM215 900l90 -143l-30 -21l-99 133z" />
    <glyph glyph-name="Eacute" unicode="&#xc9;" horiz-adv-x="511" 
d="M132 330v-293h324v-37h-361v680h335v-37h-298v-276h251v-37h-251zM338 904l34 -26l-97 -127l-31 19z" />
    <glyph glyph-name="Ecircumflex" unicode="&#xca;" horiz-adv-x="511" 
d="M132 330v-293h324v-37h-361v680h335v-37h-298v-276h251v-37h-251zM274 851l121 -81l-22 -29l-98 66l-100 -65l-20 28z" />
    <glyph glyph-name="Edieresis" unicode="&#xcb;" horiz-adv-x="511" 
d="M132 330v-293h324v-37h-361v680h335v-37h-298v-276h251v-37h-251zM223 745h-58v64h58v-64zM385 745h-58v64h58v-64z" />
    <glyph glyph-name="Igrave" unicode="&#xcc;" horiz-adv-x="269" 
d="M126 680h37v-680h-37v680zM86 910l90 -143l-30 -21l-99 133z" />
    <glyph glyph-name="Iacute" unicode="&#xcd;" horiz-adv-x="269" 
d="M115 680h37v-680h-37v680zM196 904l34 -26l-97 -127l-31 19z" />
    <glyph glyph-name="Icircumflex" unicode="&#xce;" horiz-adv-x="269" 
d="M117 680h37v-680h-37v680zM136 852l121 -81l-22 -29l-98 66l-100 -65l-20 28z" />
    <glyph glyph-name="Idieresis" unicode="&#xcf;" horiz-adv-x="269" 
d="M117 680h37v-680h-37v680zM85 743h-58v64h58v-64zM247 743h-58v64h58v-64z" />
    <glyph glyph-name="Eth" unicode="&#xd0;" horiz-adv-x="683" 
d="M28 362h149v318h196q51 0 97.5 -17t81.5 -46t55.5 -67t20.5 -80v-262q0 -43 -20 -81t-54.5 -66t-81.5 -44.5t-100 -16.5h-195v325h-149v37zM591 470q0 34 -18 65t-48 55t-69.5 38.5t-82.5 14.5h-157v-281h157v-37h-158v-288h157q45 0 85 13.5t70 36.5t47 54t17 67v262z
" />
    <glyph glyph-name="Ntilde" unicode="&#xd1;" horiz-adv-x="717" 
d="M585 680h37v-680h-46l-444 629v-629h-37v680h48l442 -623v623zM295 796q-18 0 -29 -10.5t-18 -24.5l-33 19q17 28 35.5 43t45.5 15q18 0 34.5 -7.5t33 -17t33 -17.5t33.5 -8q12 2 20.5 10.5t16.5 22.5l34 -17q-11 -22 -30.5 -39t-45.5 -17q-22 0 -39.5 7.5t-32.5 16.5
t-29 16.5t-29 7.5z" />
    <glyph glyph-name="Ograve" unicode="&#xd2;" horiz-adv-x="659" 
d="M338 690q48 0 94 -15t81.5 -42t57.5 -66t22 -87v-282q0 -50 -21 -89t-56.5 -65.5t-81.5 -40t-96 -13.5h-16q-51 0 -97.5 13.5t-82 40t-56.5 65t-21 89.5v282q0 48 22 87t58 66t82 42t94 15h17v0zM556 480q0 40 -19 72t-50 54.5t-70 34.5t-79 12h-17q-40 0 -79.5 -12
t-70.5 -34.5t-50 -54.5t-19 -72v-282q0 -42 18.5 -74t49 -53.5t70.5 -32.5t82 -11h16q42 0 81 11t69.5 32.5t49 53.5t18.5 74v282zM269 910l90 -143l-30 -21l-99 133z" />
    <glyph glyph-name="Oacute" unicode="&#xd3;" horiz-adv-x="659" 
d="M338 690q48 0 94 -15t81.5 -42t57.5 -66t22 -87v-282q0 -50 -21 -89t-56.5 -65.5t-81.5 -40t-96 -13.5h-16q-51 0 -97.5 13.5t-82 40t-56.5 65t-21 89.5v282q0 48 22 87t58 66t82 42t94 15h17v0zM556 480q0 40 -19 72t-50 54.5t-70 34.5t-79 12h-17q-40 0 -79.5 -12
t-70.5 -34.5t-50 -54.5t-19 -72v-282q0 -42 18.5 -74t49 -53.5t70.5 -32.5t82 -11h16q42 0 81 11t69.5 32.5t49 53.5t18.5 74v282zM392 904l34 -26l-97 -127l-31 19z" />
    <glyph glyph-name="Ocircumflex" unicode="&#xd4;" horiz-adv-x="659" 
d="M338 690q48 0 94 -15t81.5 -42t57.5 -66t22 -87v-282q0 -50 -21 -89t-56.5 -65.5t-81.5 -40t-96 -13.5h-16q-51 0 -97.5 13.5t-82 40t-56.5 65t-21 89.5v282q0 48 22 87t58 66t82 42t94 15h17v0zM556 480q0 40 -19 72t-50 54.5t-70 34.5t-79 12h-17q-40 0 -79.5 -12
t-70.5 -34.5t-50 -54.5t-19 -72v-282q0 -42 18.5 -74t49 -53.5t70.5 -32.5t82 -11h16q42 0 81 11t69.5 32.5t49 53.5t18.5 74v282zM328 861l121 -81l-22 -29l-98 66l-100 -65l-20 28z" />
    <glyph glyph-name="Otilde" unicode="&#xd5;" horiz-adv-x="659" 
d="M338 690q48 0 94 -15t81.5 -42t57.5 -66t22 -87v-282q0 -50 -21 -89t-56.5 -65.5t-81.5 -40t-96 -13.5h-16q-51 0 -97.5 13.5t-82 40t-56.5 65t-21 89.5v282q0 48 22 87t58 66t82 42t94 15h17v0zM556 480q0 40 -19 72t-50 54.5t-70 34.5t-79 12h-17q-40 0 -79.5 -12
t-70.5 -34.5t-50 -54.5t-19 -72v-282q0 -42 18.5 -74t49 -53.5t70.5 -32.5t82 -11h16q42 0 81 11t69.5 32.5t49 53.5t18.5 74v282zM266 806q-18 0 -29 -10.5t-18 -24.5l-33 19q17 28 35.5 43t45.5 15q18 0 34.5 -7.5t33 -17t33 -17.5t33.5 -8q12 2 20.5 10.5t16.5 22.5
l34 -17q-11 -22 -30.5 -39t-45.5 -17q-22 0 -39.5 7.5t-32.5 16.5t-29 16.5t-29 7.5z" />
    <glyph glyph-name="Odieresis" unicode="&#xd6;" horiz-adv-x="659" 
d="M338 690q48 0 94 -15t81.5 -42t57.5 -66t22 -87v-282q0 -50 -21 -89t-56.5 -65.5t-81.5 -40t-96 -13.5h-16q-51 0 -97.5 13.5t-82 40t-56.5 65t-21 89.5v282q0 48 22 87t58 66t82 42t94 15h17v0zM556 480q0 40 -19 72t-50 54.5t-70 34.5t-79 12h-17q-40 0 -79.5 -12
t-70.5 -34.5t-50 -54.5t-19 -72v-282q0 -42 18.5 -74t49 -53.5t70.5 -32.5t82 -11h16q42 0 81 11t69.5 32.5t49 53.5t18.5 74v282zM277 745h-58v64h58v-64zM439 745h-58v64h58v-64z" />
    <glyph glyph-name="multiply" unicode="&#xd7;" horiz-adv-x="525" 
d="M457 490l-172 -235l185 -255h-47l-162 223l-161 -223h-45l184 255l-171 235h44l149 -203l152 203h44z" />
    <glyph glyph-name="Oslash" unicode="&#xd8;" horiz-adv-x="640" 
d="M338 690q57 0 109 -20l39 91h40l-46 -107q50 -26 81.5 -70.5t31.5 -103.5v-282q0 -50 -21 -89t-56.5 -65.5t-81.5 -40t-96 -13.5h-16q-59 0 -114 19l-36 -85h-41l42 100q-48 26 -78 69.5t-30 104.5v282q0 48 22 87t58 66t82 42t94 15h17v0zM102 198q0 -49 24 -84t62 -56
l244 577q-23 8 -46.5 13t-47.5 5h-17q-40 0 -79.5 -12t-70.5 -34.5t-50 -54.5t-19 -72v-282v0zM556 480q0 46 -25.5 81t-64.5 58l-244 -576q45 -16 100 -16h16q42 0 81 11t69.5 32.5t49 53.5t18.5 74v282z" />
    <glyph glyph-name="Ugrave" unicode="&#xd9;" horiz-adv-x="692" 
d="M559 680h37v-481q0 -52 -19.5 -91t-53 -65.5t-78.5 -39.5t-97 -13q-53 0 -99.5 12.5t-80.5 38.5t-53.5 65.5t-19.5 92.5v481h37v-481q0 -44 17.5 -76.5t47 -53.5t68.5 -31.5t83 -10.5q41 0 79 11.5t67.5 33.5t47 54t17.5 73v481zM285 880l90 -143l-30 -21l-99 133z" />
    <glyph glyph-name="Uacute" unicode="&#xda;" horiz-adv-x="692" 
d="M559 680h37v-481q0 -52 -19.5 -91t-53 -65.5t-78.5 -39.5t-97 -13q-53 0 -99.5 12.5t-80.5 38.5t-53.5 65.5t-19.5 92.5v481h37v-481q0 -44 17.5 -76.5t47 -53.5t68.5 -31.5t83 -10.5q41 0 79 11.5t67.5 33.5t47 54t17.5 73v481zM408 874l34 -26l-97 -127l-31 19z" />
    <glyph glyph-name="Ucircumflex" unicode="&#xdb;" horiz-adv-x="692" 
d="M559 680h37v-481q0 -52 -19.5 -91t-53 -65.5t-78.5 -39.5t-97 -13q-53 0 -99.5 12.5t-80.5 38.5t-53.5 65.5t-19.5 92.5v481h37v-481q0 -44 17.5 -76.5t47 -53.5t68.5 -31.5t83 -10.5q41 0 79 11.5t67.5 33.5t47 54t17.5 73v481zM344 854l121 -81l-22 -29l-98 66
l-100 -65l-20 28z" />
    <glyph glyph-name="Udieresis" unicode="&#xdc;" horiz-adv-x="692" 
d="M559 680h37v-481q0 -52 -19.5 -91t-53 -65.5t-78.5 -39.5t-97 -13q-53 0 -99.5 12.5t-80.5 38.5t-53.5 65.5t-19.5 92.5v481h37v-481q0 -44 17.5 -76.5t47 -53.5t68.5 -31.5t83 -10.5q41 0 79 11.5t67.5 33.5t47 54t17.5 73v481zM293 746h-58v64h58v-64zM455 746h-58v64
h58v-64z" />
    <glyph glyph-name="Yacute" unicode="&#xdd;" horiz-adv-x="625" 
d="M287 277l-262 403h45l236 -362l239 362h45l-266 -403v-277h-37v277zM370 875l34 -26l-97 -127l-31 19z" />
    <glyph glyph-name="Thorn" unicode="&#xde;" horiz-adv-x="495" 
d="M272 540q37 0 68 -13.5t53 -36.5t34.5 -53t12.5 -63v-20q0 -31 -12 -59t-33.5 -48.5t-52.5 -32.5t-70 -12h-180v-203h-37v681h37v-140h180zM403 374q0 23 -8.5 46t-25.5 41.5t-41 30t-56 11.5h-180v-264h180q62 0 96.5 33.5t34.5 81.5v20z" />
    <glyph glyph-name="agrave" unicode="&#xe0;" horiz-adv-x="494" 
d="M256 500q76 0 120 -44t44 -120v-336h-38v68q-31 -45 -70.5 -61.5t-88.5 -16.5q-34 0 -64 9.5t-53 28t-36.5 45t-13.5 60.5v92l326 57v54q0 62 -32 94.5t-94 32.5q-27 0 -52.5 -5.5t-47 -13.5t-38.5 -16.5t-28 -15.5l-15 34q13 8 33 17.5t44 17.5t51 13.5t53 5.5zM383 244
l-290 -51v-60q0 -26 11 -45.5t29 -33t42 -20.5t50 -7q29 0 57 9t50.5 26t36.5 40.5t14 52.5v89zM177 711l90 -143l-30 -21l-99 133z" />
    <glyph glyph-name="aacute" unicode="&#xe1;" horiz-adv-x="494" 
d="M256 500q76 0 120 -44t44 -120v-336h-38v68q-31 -45 -70.5 -61.5t-88.5 -16.5q-34 0 -64 9.5t-53 28t-36.5 45t-13.5 60.5v92l326 57v54q0 62 -32 94.5t-94 32.5q-27 0 -52.5 -5.5t-47 -13.5t-38.5 -16.5t-28 -15.5l-15 34q13 8 33 17.5t44 17.5t51 13.5t53 5.5zM383 244
l-290 -51v-60q0 -26 11 -45.5t29 -33t42 -20.5t50 -7q29 0 57 9t50.5 26t36.5 40.5t14 52.5v89zM300 704l34 -26l-97 -127l-31 19z" />
    <glyph glyph-name="acircumflex" unicode="&#xe2;" horiz-adv-x="494" 
d="M256 500q76 0 120 -44t44 -120v-336h-38v68q-31 -45 -70.5 -61.5t-88.5 -16.5q-34 0 -64 9.5t-53 28t-36.5 45t-13.5 60.5v92l326 57v54q0 62 -32 94.5t-94 32.5q-27 0 -52.5 -5.5t-47 -13.5t-38.5 -16.5t-28 -15.5l-15 34q13 8 33 17.5t44 17.5t51 13.5t53 5.5zM383 244
l-290 -51v-60q0 -26 11 -45.5t29 -33t42 -20.5t50 -7q29 0 57 9t50.5 26t36.5 40.5t14 52.5v89zM236 673l121 -81l-22 -29l-98 66l-100 -65l-20 28z" />
    <glyph glyph-name="atilde" unicode="&#xe3;" horiz-adv-x="494" 
d="M256 500q76 0 120 -44t44 -120v-336h-38v68q-31 -45 -70.5 -61.5t-88.5 -16.5q-34 0 -64 9.5t-53 28t-36.5 45t-13.5 60.5v92l326 57v54q0 62 -32 94.5t-94 32.5q-27 0 -52.5 -5.5t-47 -13.5t-38.5 -16.5t-28 -15.5l-15 34q13 8 33 17.5t44 17.5t51 13.5t53 5.5zM383 244
l-290 -51v-60q0 -26 11 -45.5t29 -33t42 -20.5t50 -7q29 0 57 9t50.5 26t36.5 40.5t14 52.5v89zM174 636q-18 0 -29 -10.5t-18 -24.5l-33 19q17 28 35.5 43t45.5 15q18 0 34.5 -7.5t33 -17t33 -17.5t33.5 -8q12 2 20.5 10.5t16.5 22.5l34 -17q-11 -22 -30.5 -39t-45.5 -17
q-22 0 -39.5 7.5t-32.5 16.5t-29 16.5t-29 7.5z" />
    <glyph glyph-name="adieresis" unicode="&#xe4;" horiz-adv-x="494" 
d="M256 500q76 0 120 -44t44 -120v-336h-38v68q-31 -45 -70.5 -61.5t-88.5 -16.5q-34 0 -64 9.5t-53 28t-36.5 45t-13.5 60.5v92l326 57v54q0 62 -32 94.5t-94 32.5q-27 0 -52.5 -5.5t-47 -13.5t-38.5 -16.5t-28 -15.5l-15 34q13 8 33 17.5t44 17.5t51 13.5t53 5.5zM383 244
l-290 -51v-60q0 -26 11 -45.5t29 -33t42 -20.5t50 -7q29 0 57 9t50.5 26t36.5 40.5t14 52.5v89zM185 567h-58v64h58v-64zM347 567h-58v64h58v-64z" />
    <glyph glyph-name="aring" unicode="&#xe5;" horiz-adv-x="494" 
d="M256 500q76 0 120 -44t44 -120v-336h-38v68q-31 -45 -70.5 -61.5t-88.5 -16.5q-34 0 -64 9.5t-53 28t-36.5 45t-13.5 60.5v92l326 57v54q0 62 -32 94.5t-94 32.5q-27 0 -52.5 -5.5t-47 -13.5t-38.5 -16.5t-28 -15.5l-15 34q13 8 33 17.5t44 17.5t51 13.5t53 5.5zM383 244
l-290 -51v-60q0 -26 11 -45.5t29 -33t42 -20.5t50 -7q29 0 57 9t50.5 26t36.5 40.5t14 52.5v89zM236 557q-16 0 -30 6t-25 16.5t-17.5 25t-6.5 30.5q0 33 23.5 55t55.5 22t56 -22t24 -55q0 -32 -24 -55t-56 -23zM194 633q0 -17 13 -29t30 -12t29.5 12t12.5 29q0 18 -12.5 31
t-29.5 13t-30 -13t-13 -31z" />
    <glyph glyph-name="ae" unicode="&#xe6;" horiz-adv-x="819" 
d="M595 30q30 0 54 5t43 12t31.5 14.5t19.5 13.5l21 -27q-32 -28 -79 -41.5t-90 -13.5q-63 0 -115 22t-78 70q-15 -27 -36 -45t-45 -28.5t-49.5 -14.5t-48.5 -4q-34 0 -64.5 9.5t-53.5 28t-36.5 45t-13.5 60.5v98l327 43v61q0 62 -32 94.5t-94 32.5q-23 0 -48 -5.5
t-47.5 -13.5t-41 -16.5t-29.5 -15.5l-15 34q13 9 33 18.5t44 17.5t51 13t53 5q56 0 93.5 -24.5t54.5 -69.5q23 42 68.5 69t105.5 27q41 0 74.5 -12t57.5 -33.5t37.5 -53t13.5 -70.5v-51l-342 -39v-84q0 -34 14.5 -59t39 -41t56.5 -23.5t66 -7.5zM578 467q-33 0 -61.5 -11
t-50.5 -29t-34.5 -42t-12.5 -50v-53l305 33v25q0 32 -11.5 55.5t-31 39.5t-46 24t-57.5 8zM383 241l-290 -37v-68q0 -26 11 -46t29 -34t42 -21t50 -7q29 0 57 6.5t50.5 20.5t36.5 35t14 50v101z" />
    <glyph glyph-name="ccedilla" unicode="&#xe7;" horiz-adv-x="444" 
d="M241 463q-31 0 -58 -9t-47 -26t-32 -41.5t-12 -54.5v-175q0 -33 11.5 -57.5t31.5 -40.5t47.5 -24t60.5 -8q35 0 66.5 9t65.5 37l20 -31q-39 -33 -73 -42.5t-79 -9.5q-42 0 -76.5 10.5t-59 31.5t-38.5 52t-14 73v175q0 38 14.5 69t39.5 53t59 34t73 12q50 0 87.5 -14.5
t70.5 -52.5l-29 -27q-25 28 -59 42.5t-70 14.5zM251 14l-17 -54q19 -8 34 -20q13 -11 23 -28t10 -42q0 -38 -27 -63t-69 -36l-12 28q10 3 22.5 8.5t23.5 13.5t18.5 18.5t7.5 23.5q0 22 -11.5 35.5t-25.5 21.5q-17 9 -38 13l20 81h41z" />
    <glyph glyph-name="egrave" unicode="&#xe8;" horiz-adv-x="482" 
d="M268 27q30 0 54 5t43 12t31.5 14.5t19.5 13.5l21 -27q-32 -28 -79 -41.5t-90 -13.5q-42 0 -80.5 10t-68 31t-47 52.5t-17.5 74.5v183q0 34 15 63t41.5 50.5t62.5 33.5t77 12t74.5 -11.5t57.5 -32.5t37.5 -50.5t13.5 -64.5v-61l-342 -49v-73q0 -34 14.5 -59t39 -41
t56.5 -23.5t66 -7.5zM251 463q-33 0 -61.5 -9.5t-50.5 -26t-34.5 -38.5t-12.5 -48v-73l305 43v29q0 25 -11.5 47.5t-31 39t-46 26.5t-57.5 10zM186 700l90 -143l-30 -21l-99 133z" />
    <glyph glyph-name="eacute" unicode="&#xe9;" horiz-adv-x="482" 
d="M268 27q30 0 54 5t43 12t31.5 14.5t19.5 13.5l21 -27q-32 -28 -79 -41.5t-90 -13.5q-42 0 -80.5 10t-68 31t-47 52.5t-17.5 74.5v183q0 34 15 63t41.5 50.5t62.5 33.5t77 12t74.5 -11.5t57.5 -32.5t37.5 -50.5t13.5 -64.5v-61l-342 -49v-73q0 -34 14.5 -59t39 -41
t56.5 -23.5t66 -7.5zM251 463q-33 0 -61.5 -9.5t-50.5 -26t-34.5 -38.5t-12.5 -48v-73l305 43v29q0 25 -11.5 47.5t-31 39t-46 26.5t-57.5 10zM309 704l34 -26l-97 -127l-31 19z" />
    <glyph glyph-name="ecircumflex" unicode="&#xea;" horiz-adv-x="482" 
d="M268 27q30 0 54 5t43 12t31.5 14.5t19.5 13.5l21 -27q-32 -28 -79 -41.5t-90 -13.5q-42 0 -80.5 10t-68 31t-47 52.5t-17.5 74.5v183q0 34 15 63t41.5 50.5t62.5 33.5t77 12t74.5 -11.5t57.5 -32.5t37.5 -50.5t13.5 -64.5v-61l-342 -49v-73q0 -34 14.5 -59t39 -41
t56.5 -23.5t66 -7.5zM251 463q-33 0 -61.5 -9.5t-50.5 -26t-34.5 -38.5t-12.5 -48v-73l305 43v29q0 25 -11.5 47.5t-31 39t-46 26.5t-57.5 10zM245 672l121 -81l-22 -29l-98 66l-100 -65l-20 28z" />
    <glyph glyph-name="edieresis" unicode="&#xeb;" horiz-adv-x="482" 
d="M268 27q30 0 54 5t43 12t31.5 14.5t19.5 13.5l21 -27q-32 -28 -79 -41.5t-90 -13.5q-42 0 -80.5 10t-68 31t-47 52.5t-17.5 74.5v183q0 34 15 63t41.5 50.5t62.5 33.5t77 12t74.5 -11.5t57.5 -32.5t37.5 -50.5t13.5 -64.5v-61l-342 -49v-73q0 -34 14.5 -59t39 -41
t56.5 -23.5t66 -7.5zM251 463q-33 0 -61.5 -9.5t-50.5 -26t-34.5 -38.5t-12.5 -48v-73l305 43v29q0 25 -11.5 47.5t-31 39t-46 26.5t-57.5 10zM194 559h-58v64h58v-64zM356 559h-58v64h58v-64z" />
    <glyph glyph-name="igrave" unicode="&#xec;" 
d="M108 490h37v-490h-37v490zM68 710l90 -143l-30 -21l-99 133z" />
    <glyph glyph-name="iacute" unicode="&#xed;" 
d="M108 490h37v-490h-37v490zM189 704l34 -26l-97 -127l-31 19z" />
    <glyph glyph-name="icircumflex" unicode="&#xee;" 
d="M105 490h37v-490h-37v490zM124 681l121 -81l-22 -29l-98 66l-100 -65l-20 28z" />
    <glyph glyph-name="idieresis" unicode="&#xef;" 
d="M107 490h37v-490h-37v490zM74 567h-58v64h58v-64zM236 567h-58v64h58v-64z" />
    <glyph glyph-name="eth" unicode="&#xf0;" horiz-adv-x="519" 
d="M450 714l14 -29l-126 -58q54 -53 82 -126t28 -167v-177q0 -34 -16 -64.5t-43.5 -53t-64 -36t-77.5 -13.5q-40 0 -75.5 13t-61 35.5t-40.5 53t-15 65.5v177q0 35 15 65.5t40.5 53t61 35t75.5 12.5q45 0 84 -12t68 -47q-10 49 -35 90.5t-61 79.5l-155 -71l-12 30l142 65
q-35 31 -75.5 51.5t-85.5 28.5l8 37q57 -14 104 -39.5t85 -60.5zM411 334q0 27 -13.5 51t-36 41t-52.5 27t-62 10t-60.5 -10t-49.5 -27.5t-33 -41t-12 -50.5v-177q0 -27 12 -51t33 -41.5t49.5 -27.5t60.5 -10q33 0 63 10.5t52.5 28t35.5 41t13 50.5v177z" />
    <glyph glyph-name="ntilde" unicode="&#xf1;" horiz-adv-x="555" 
d="M309 501q78 0 124 -44t46 -122v-335h-37v335q0 62 -35.5 95.5t-97.5 33.5q-31 0 -64 -12.5t-60 -34t-44.5 -50t-17.5 -59.5v-308h-38v490h38v-103q30 51 77.5 82.5t108.5 31.5zM219 636q-18 0 -29 -10.5t-18 -24.5l-33 19q17 28 35.5 43t45.5 15q18 0 34.5 -7.5t33 -17
t33 -17.5t33.5 -8q12 2 20.5 10.5t16.5 22.5l34 -17q-11 -22 -30.5 -39t-45.5 -17q-22 0 -39.5 7.5t-32.5 16.5t-29 16.5t-29 7.5z" />
    <glyph glyph-name="ograve" unicode="&#xf2;" horiz-adv-x="504" 
d="M252 501q38 0 73 -12t62.5 -33.5t44 -52t16.5 -68.5v-175q0 -38 -16.5 -69t-43.5 -53t-62.5 -34t-73.5 -12t-73.5 12t-63 34t-44 53t-16.5 69v175q0 38 16.5 68.5t44.5 52t63.5 33.5t72.5 12zM411 335q0 30 -13.5 54t-36 40.5t-51 25.5t-58.5 9t-58.5 -9t-51 -26
t-36.5 -40.5t-14 -53.5v-175q0 -30 13.5 -54.5t36 -41.5t51.5 -26t59 -9t58.5 9t51 26t36 41.5t13.5 54.5v175zM191 700l90 -143l-30 -21l-99 133z" />
    <glyph glyph-name="oacute" unicode="&#xf3;" horiz-adv-x="504" 
d="M252 501q38 0 73 -12t62.5 -33.5t44 -52t16.5 -68.5v-175q0 -38 -16.5 -69t-43.5 -53t-62.5 -34t-73.5 -12t-73.5 12t-63 34t-44 53t-16.5 69v175q0 38 16.5 68.5t44.5 52t63.5 33.5t72.5 12zM411 335q0 30 -13.5 54t-36 40.5t-51 25.5t-58.5 9t-58.5 -9t-51 -26
t-36.5 -40.5t-14 -53.5v-175q0 -30 13.5 -54.5t36 -41.5t51.5 -26t59 -9t58.5 9t51 26t36 41.5t13.5 54.5v175zM314 704l34 -26l-97 -127l-31 19z" />
    <glyph glyph-name="ocircumflex" unicode="&#xf4;" horiz-adv-x="504" 
d="M252 501q38 0 73 -12t62.5 -33.5t44 -52t16.5 -68.5v-175q0 -38 -16.5 -69t-43.5 -53t-62.5 -34t-73.5 -12t-73.5 12t-63 34t-44 53t-16.5 69v175q0 38 16.5 68.5t44.5 52t63.5 33.5t72.5 12zM411 335q0 30 -13.5 54t-36 40.5t-51 25.5t-58.5 9t-58.5 -9t-51 -26
t-36.5 -40.5t-14 -53.5v-175q0 -30 13.5 -54.5t36 -41.5t51.5 -26t59 -9t58.5 9t51 26t36 41.5t13.5 54.5v175zM250 672l121 -81l-22 -29l-98 66l-100 -65l-20 28z" />
    <glyph glyph-name="otilde" unicode="&#xf5;" horiz-adv-x="504" 
d="M252 501q38 0 73 -12t62.5 -33.5t44 -52t16.5 -68.5v-175q0 -38 -16.5 -69t-43.5 -53t-62.5 -34t-73.5 -12t-73.5 12t-63 34t-44 53t-16.5 69v175q0 38 16.5 68.5t44.5 52t63.5 33.5t72.5 12zM411 335q0 30 -13.5 54t-36 40.5t-51 25.5t-58.5 9t-58.5 -9t-51 -26
t-36.5 -40.5t-14 -53.5v-175q0 -30 13.5 -54.5t36 -41.5t51.5 -26t59 -9t58.5 9t51 26t36 41.5t13.5 54.5v175zM188 617q-18 0 -29 -10.5t-18 -24.5l-33 19q17 28 35.5 43t45.5 15q18 0 34.5 -7.5t33 -17t33 -17.5t33.5 -8q12 2 20.5 10.5t16.5 22.5l34 -17
q-11 -22 -30.5 -39t-45.5 -17q-22 0 -39.5 7.5t-32.5 16.5t-29 16.5t-29 7.5z" />
    <glyph glyph-name="odieresis" unicode="&#xf6;" horiz-adv-x="504" 
d="M252 501q38 0 73 -12t62.5 -33.5t44 -52t16.5 -68.5v-175q0 -38 -16.5 -69t-43.5 -53t-62.5 -34t-73.5 -12t-73.5 12t-63 34t-44 53t-16.5 69v175q0 38 16.5 68.5t44.5 52t63.5 33.5t72.5 12zM411 335q0 30 -13.5 54t-36 40.5t-51 25.5t-58.5 9t-58.5 -9t-51 -26
t-36.5 -40.5t-14 -53.5v-175q0 -30 13.5 -54.5t36 -41.5t51.5 -26t59 -9t58.5 9t51 26t36 41.5t13.5 54.5v175zM199 557h-58v64h58v-64zM361 557h-58v64h58v-64z" />
    <glyph glyph-name="divide" unicode="&#xf7;" horiz-adv-x="678" 
d="M55 307h568v-37h-568v37zM293 172h82v-80h-82v80zM375 401h-82v81h82v-81z" />
    <glyph glyph-name="oslash" unicode="&#xf8;" horiz-adv-x="512" 
d="M33 -59l67 110q-21 21 -33 49t-12 60v175q0 38 16.5 68.5t44.5 52t63.5 33.5t72.5 12q29 0 56 -7t51 -20l41 66h42l-53 -86q27 -22 43 -52t16 -67v-175q0 -38 -16.5 -69t-43.5 -53t-62.5 -34t-73.5 -12q-34 0 -66 9.5t-58 26.5l-53 -87h-42zM92 160q0 -23 7.5 -42
t20.5 -34l220 359q-39 21 -88 21q-30 0 -58.5 -9t-51 -26t-36.5 -40.5t-14 -53.5v-175v0zM411 335q0 27 -11 48.5t-30 38.5l-223 -362q22 -15 49 -23t56 -8q30 0 58.5 9t51 26t36 41.5t13.5 54.5v175z" />
    <glyph glyph-name="ugrave" unicode="&#xf9;" horiz-adv-x="547" 
d="M435 490h37v-332q0 -38 -16 -69t-43 -53t-62 -34t-73 -12t-73 12t-61.5 34t-42.5 53t-16 69v332h37v-332q0 -30 13 -54t35 -41.5t50 -26.5t58 -9t58.5 9t50 26t35 41.5t13.5 54.5v332zM218 700l90 -143l-30 -21l-99 133z" />
    <glyph glyph-name="uacute" unicode="&#xfa;" horiz-adv-x="547" 
d="M435 490h37v-332q0 -38 -16 -69t-43 -53t-62 -34t-73 -12t-73 12t-61.5 34t-42.5 53t-16 69v332h37v-332q0 -30 13 -54t35 -41.5t50 -26.5t58 -9t58.5 9t50 26t35 41.5t13.5 54.5v332zM341 694l34 -26l-97 -127l-31 19z" />
    <glyph glyph-name="ucircumflex" unicode="&#xfb;" horiz-adv-x="547" 
d="M435 490h37v-332q0 -38 -16 -69t-43 -53t-62 -34t-73 -12t-73 12t-61.5 34t-42.5 53t-16 69v332h37v-332q0 -30 13 -54t35 -41.5t50 -26.5t58 -9t58.5 9t50 26t35 41.5t13.5 54.5v332zM277 681l121 -81l-22 -29l-98 66l-100 -65l-20 28z" />
    <glyph glyph-name="udieresis" unicode="&#xfc;" horiz-adv-x="547" 
d="M435 490h37v-332q0 -38 -16 -69t-43 -53t-62 -34t-73 -12t-73 12t-61.5 34t-42.5 53t-16 69v332h37v-332q0 -30 13 -54t35 -41.5t50 -26.5t58 -9t58.5 9t50 26t35 41.5t13.5 54.5v332zM226 576h-58v64h58v-64zM388 576h-58v64h58v-64z" />
    <glyph glyph-name="yacute" unicode="&#xfd;" horiz-adv-x="439" 
d="M197 -18l-175 508h41l158 -457l161 457h42l-197 -544q-26 -74 -82.5 -116.5t-134.5 -42.5v37q66 0 111.5 36.5t68.5 99.5zM277 694l34 -26l-97 -127l-31 19z" />
    <glyph glyph-name="thorn" unicode="&#xfe;" horiz-adv-x="540" 
d="M294 501q41 0 75.5 -13t60.5 -35.5t40.5 -52.5t14.5 -65v-178q0 -35 -14.5 -65.5t-40.5 -53t-60.5 -35.5t-75.5 -13q-54 0 -99.5 22t-72.5 57v-337h-37v951h37v-262q27 36 72.5 58t99.5 22zM448 335q0 27 -12 51t-33 41t-49 27t-60 10q-34 0 -64.5 -10.5t-53.5 -28
t-36.5 -41t-13.5 -49.5v-178q0 -27 13.5 -50.5t37 -41t54 -28t63.5 -10.5q32 0 60 10t49 27.5t33 41.5t12 51v178z" />
    <glyph glyph-name="ydieresis" unicode="&#xff;" horiz-adv-x="439" 
d="M197 -18l-175 508h41l158 -457l161 457h42l-197 -544q-26 -74 -82.5 -116.5t-134.5 -42.5v37q66 0 111.5 36.5t68.5 99.5zM162 576h-58v64h58v-64zM324 576h-58v64h58v-64z" />
    <glyph glyph-name="dotlessi" unicode="&#x131;" 
d="M95 490h37v-490h-37v490z" />
    <glyph glyph-name="Lslash" unicode="&#x141;" horiz-adv-x="543" 
d="M181 680v-290l126 78l18 -29l-144 -89v-313h347v-37h-384v326l-111 -68l-18 29l129 79v314h37z" />
    <glyph glyph-name="lslash" unicode="&#x142;" horiz-adv-x="353" 
d="M44 258l-19 29l137 84v359h37v-336l120 74l19 -29l-139 -85v-354h-37v330z" />
    <glyph glyph-name="OE" unicode="&#x152;" horiz-adv-x="885" 
d="M506 335v-298h324v-37h-508q-53 0 -100 16.5t-82 45t-55 66.5t-20 81v261q0 42 20.5 79.5t56 66.5t82 46t97.5 17h483v-37h-298v-270h251v-37h-251zM102 209q2 -39 19.5 -70.5t47.5 -54t69 -35t84 -12.5h147v605h-148q-38 0 -77 -14t-70.5 -37.5t-51.5 -54.5t-20 -66
v-261v0z" />
    <glyph glyph-name="oe" unicode="&#x153;" horiz-adv-x="847" 
d="M624 34q20 0 41 3.5t40 9.5t35 14.5t26 17.5l26 -27q-14 -13 -34.5 -23.5t-43.5 -17.5t-46.5 -10.5t-43.5 -3.5q-29 0 -58 6t-55 17.5t-47 29t-35 41.5q-24 -42 -71 -68t-107 -26q-41 0 -76.5 13t-62 35.5t-42 53t-15.5 65.5v161q0 34 15.5 64t42 52.5t62 35.5t76.5 13
q60 0 108 -27t71 -70q9 16 25 33t38 31.5t49 23.5t59 9q35 0 69 -10t60.5 -30t43 -51.5t16.5 -73.5v-51l-341 -49v-66q0 -31 15.5 -54t40 -39t56 -24t63.5 -8zM251 34q32 0 61 10t51 27t34.5 39.5t12.5 48.5v170q0 26 -12.5 48.5t-34.5 39.5t-51 27t-61 10q-33 0 -62 -10
t-50.5 -27.5t-34 -41t-12.5 -50.5v-161q0 -27 12.5 -50.5t34 -41.5t50.5 -28t62 -10zM607 454q-30 0 -58.5 -10t-50.5 -27.5t-35.5 -40t-13.5 -47.5v-67l303 43v20q0 26 -11.5 49.5t-31 41t-46 28t-56.5 10.5z" />
    <glyph glyph-name="Scaron" unicode="&#x160;" horiz-adv-x="532" 
d="M518 288v-115q0 -47 -17 -81t-46.5 -56.5t-69.5 -33.5t-87 -11q-74 0 -135 26t-102 86l30 22q37 -53 92.5 -75t115.5 -22q38 0 71.5 9t58 27.5t38.5 45.5t14 63v87l-396 142v121q0 44 16.5 76t45 52t67 29.5t83.5 9.5q71 0 126 -25t91 -68l-30 -30q-30 36 -78.5 61
t-109.5 25q-35 0 -66.5 -7t-55.5 -23t-38 -40.5t-14 -59.5v-94zM290 700l-101 107l28 21l72 -77l70 77l27 -21z" />
    <glyph glyph-name="scaron" unicode="&#x161;" horiz-adv-x="420" 
d="M392 213v-84q0 -37 -13.5 -63t-37.5 -43t-56 -25t-68 -8q-51 0 -100 19.5t-84 52.5l24 30q29 -29 73 -47t88 -18q29 0 54 5t44 17t29.5 31t10.5 47v62l-298 100v77q0 34 12 59t33.5 41.5t51 25t63.5 8.5q40 0 83 -13.5t71 -32.5l-19 -34q-28 17 -64 30t-71 13
q-27 0 -49.5 -5t-39 -16.5t-25.5 -29.5t-9 -45v-54zM218 500l-101 107l28 21l72 -77l70 77l27 -21z" />
    <glyph glyph-name="Ydieresis" unicode="&#x178;" horiz-adv-x="625" 
d="M287 277l-262 403h45l236 -362l239 362h45l-266 -403v-277h-37v277zM255 726h-58v64h58v-64zM417 726h-58v64h58v-64z" />
    <glyph glyph-name="Zcaron" unicode="&#x17d;" horiz-adv-x="584" 
d="M515 680v-29l-393 -614h407v-37h-474v16l406 627h-389v37h443zM294 700l-101 107l28 21l72 -77l70 77l27 -21z" />
    <glyph glyph-name="zcaron" unicode="&#x17e;" horiz-adv-x="463" 
d="M393 490v-25l-292 -429h313v-36h-365v30l293 428h-287v32h338zM234 490l-101 107l28 21l72 -77l70 77l27 -21z" />
    <glyph glyph-name="florin" unicode="&#x192;" horiz-adv-x="555" 
d="M425 760q32 0 64.5 -9t50.5 -26l-21 -29q-14 13 -41 20t-53 7q-24 0 -47 -8.5t-41 -23t-30 -34t-16 -42.5l-22 -138h117v-38h-121q-6 -47 -14 -105.5t-16.5 -119t-16 -117.5t-13.5 -102q-4 -29 -21.5 -54.5t-43.5 -44t-58.5 -29.5t-66.5 -11v36q28 0 53.5 8.5t45.5 23.5
t33 34.5t16 41.5l60 439h-101v38h107l23 144q5 29 19.5 54t37.5 44t52.5 30t63.5 11z" />
    <glyph glyph-name="circumflex" unicode="&#x2c6;" horiz-adv-x="340" 
d="M169 681l121 -81l-22 -29l-98 66l-100 -65l-20 28z" />
    <glyph glyph-name="caron" unicode="&#x2c7;" horiz-adv-x="297" 
d="M151 490l-101 107l28 21l72 -77l70 77l27 -21z" />
    <glyph glyph-name="breve" unicode="&#x2d8;" horiz-adv-x="338" 
d="M169 604q-43 0 -74.5 21t-44.5 57l36 11q8 -24 30 -38t53 -14q30 0 52.5 14t30.5 38l36 -11q-13 -36 -44.5 -57t-74.5 -21z" />
    <glyph glyph-name="dotaccent" unicode="&#x2d9;" horiz-adv-x="146" 
d="M50 697h46v-57h-46v57z" />
    <glyph glyph-name="ring" unicode="&#x2da;" horiz-adv-x="241" 
d="M121 557q-16 0 -30 6t-25 16.5t-17.5 25t-6.5 30.5q0 33 23.5 55t55.5 22t56 -22t24 -55q0 -32 -24 -55t-56 -23zM79 633q0 -17 13 -29t30 -12t29.5 12t12.5 29q0 18 -12.5 31t-29.5 13t-30 -13t-13 -31z" />
    <glyph glyph-name="ogonek" unicode="&#x2db;" horiz-adv-x="260" 
d="M167 0l11 -82q-5 -1 -19.5 -6t-29.5 -16.5t-27 -29t-12 -43.5q0 -8 1 -13h119v-37h-153q-3 10 -5 21t-2 19q0 37 14 62t31 40q19 18 44 28l-9 57h37z" />
    <glyph glyph-name="tilde" unicode="&#x2dc;" horiz-adv-x="386" 
d="M130 636q-18 0 -29 -10.5t-18 -24.5l-33 19q17 28 35.5 43t45.5 15q18 0 34.5 -7.5t33 -17t33 -17.5t33.5 -8q12 2 20.5 10.5t16.5 22.5l34 -17q-11 -22 -30.5 -39t-45.5 -17q-22 0 -39.5 7.5t-32.5 16.5t-29 16.5t-29 7.5z" />
    <glyph glyph-name="hungarumlaut" unicode="&#x2dd;" horiz-adv-x="462" 
d="M272 700l-193 -150l-29 29l188 154zM412 700l-193 -150l-29 29l188 154z" />
    <glyph glyph-name="endash" unicode="&#x2013;" horiz-adv-x="549" 
d="M3 307h538v-37h-538v37z" />
    <glyph glyph-name="emdash" unicode="&#x2014;" horiz-adv-x="765" 
d="M4 307h756v-37h-756v37z" />
    <glyph glyph-name="quoteleft" unicode="&#x2018;" horiz-adv-x="102" 
d="M30 502v28q0 30 1.5 53.5t5.5 42.5t11 34.5t19 29.5l25 -17q-15 -26 -18.5 -53.5t-3.5 -62.5v-55h-40z" />
    <glyph glyph-name="quoteright" unicode="&#x2019;" horiz-adv-x="102" 
d="M73 681v-26q0 -34 -3 -58t-9 -42t-14.5 -32t-20.5 -28l-25 17q9 13 15 24.5t9.5 25t5.5 29.5t2 37v53h40z" />
    <glyph glyph-name="quotesinglbase" unicode="&#x201a;" horiz-adv-x="209" 
d="M171 70v-26q0 -34 -3 -58t-9 -42t-14.5 -32t-20.5 -28l-25 17q9 13 15 24.5t9.5 25t5.5 29.5t2 37v53h40z" />
    <glyph glyph-name="quotedblleft" unicode="&#x201c;" horiz-adv-x="205" 
d="M143 502v28q0 30 1.5 53.5t5.5 42.5t11 34.5t19 29.5l25 -17q-15 -26 -18.5 -53.5t-3.5 -62.5v-55h-40zM30 502v28q0 30 1.5 53.5t5.5 42.5t11 34.5t19 29.5l25 -17q-15 -26 -18.5 -53.5t-3.5 -62.5v-55h-40z" />
    <glyph glyph-name="quotedblright" unicode="&#x201d;" horiz-adv-x="224" 
d="M73 679v-26q0 -34 -3 -58t-9 -42t-14.5 -32t-20.5 -28l-25 17q9 13 15 24.5t9.5 25t5.5 29.5t2 37v53h40zM194 679v-26q0 -34 -3 -58t-9 -42t-14.5 -32t-20.5 -28l-25 17q9 13 15 24.5t9.5 25t5.5 29.5t2 37v53h40z" />
    <glyph glyph-name="quotedblbase" unicode="&#x201e;" horiz-adv-x="371" 
d="M171 71v-26q0 -34 -3 -58t-9 -42t-14.5 -32t-20.5 -28l-25 17q9 13 15 24.5t9.5 25t5.5 29.5t2 37v53h40zM333 72v-26q0 -34 -3 -58t-9 -42t-14.5 -32t-20.5 -28l-25 17q9 13 15 24.5t9.5 25t5.5 29.5t2 37v53h40z" />
    <glyph glyph-name="dagger" unicode="&#x2020;" horiz-adv-x="513" 
d="M275 490h180v-37h-180v-456h-37v456h-176v37h176v190h37v-190z" />
    <glyph glyph-name="daggerdbl" unicode="&#x2021;" horiz-adv-x="514" 
d="M278 490h191v-37h-191v-416h191v-37h-191v-188h-37v188h-196v37h196v416h-196v37h196v190h37v-190z" />
    <glyph glyph-name="bullet" unicode="&#x2022;" horiz-adv-x="336" 
d="M85 342h166v-163h-166v163z" />
    <glyph glyph-name="ellipsis" unicode="&#x2026;" horiz-adv-x="697" 
d="M310 87h77v-87h-77v87zM535 87h77v-87h-77v87zM85 87h77v-87h-77v87z" />
    <glyph glyph-name="perthousand" unicode="&#x2030;" horiz-adv-x="1007" 
d="M544 697l33 -19l-410 -684l-33 19zM318 505q0 -21 -9.5 -39.5t-26 -32t-38.5 -21.5t-47 -8t-47.5 8t-39 21.5t-26 32t-9.5 39.5v109q0 21 9.5 39t26 31.5t39 21.5t47.5 8t47 -8t38.5 -21.5t26 -31.5t9.5 -39v-109zM510 305q26 0 48 -7.5t38 -21t25.5 -31.5t9.5 -39v-110
q0 -21 -9.5 -39t-25.5 -31.5t-38 -21.5t-48 -8q-25 0 -47.5 8t-39 21.5t-26 31.5t-9.5 39v110q0 21 9.5 39t26 31.5t39 21t47.5 7.5zM112 505q0 -13 7 -24.5t18.5 -20.5t27 -14t32.5 -5q35 0 59.5 19t24.5 45v109q0 27 -24.5 45t-59.5 18t-60 -18.5t-25 -44.5v-109zM594 206
q0 26 -24.5 44t-59.5 18t-60 -18t-25 -44v-110q0 -13 7 -24.5t18.5 -20t27 -13.5t32.5 -5q35 0 59.5 18.5t24.5 44.5v110zM810 305q26 0 48 -7.5t38.5 -21t26 -31.5t9.5 -39v-110q0 -21 -9.5 -39t-26 -31.5t-38.5 -21.5t-48 -8q-25 0 -47.5 8t-39 21.5t-26 31.5t-9.5 39v110
q0 21 9.5 39t26 31.5t39 21t47.5 7.5zM895 206q0 26 -25 44t-60 18t-60 -18t-25 -44v-110q0 -13 7 -24.5t18.5 -20t27 -13.5t32.5 -5q35 0 60 18.5t25 44.5v110z" />
    <glyph glyph-name="guilsinglleft" unicode="&#x2039;" horiz-adv-x="292" 
d="M213 0l-158 174l158 180l24 -32l-124 -146l124 -144z" />
    <glyph glyph-name="guilsinglright" unicode="&#x203a;" horiz-adv-x="292" 
d="M178 176l-123 146l24 32l158 -180l-158 -174l-24 32z" />
    <glyph glyph-name="fraction" unicode="&#x2044;" horiz-adv-x="476" 
d="M7 0l418 680h47l-417 -680h-48z" />
    <glyph glyph-name="foursuperior" unicode="&#x2074;" horiz-adv-x="394" 
d="M277 465h77v-31h-77v-108h-37v108h-180v31l155 215h62v-215zM240 653h-5l-136 -188h141v188z" />
    <glyph glyph-name="Euro" unicode="&#x20ac;" horiz-adv-x="638" 
d="M415 672q-43 0 -76 -13t-55.5 -35.5t-34 -52.5t-11.5 -64v-69h249v-37h-249v-89h249v-37h-249v-79q0 -35 13.5 -65.5t37.5 -53t56.5 -35.5t69.5 -13q42 0 80 13.5t67 38.5l23 -28q-35 -29 -78 -45t-92 -16q-50 0 -90 16t-67.5 44t-42 65t-14.5 79v79h-154v37h154v89h-154
v37h154v69q0 42 14.5 79t42 64t67.5 43t90 16q49 0 92 -17t78 -47l-23 -26q-29 26 -67 39.5t-80 13.5z" />
    <glyph glyph-name="trademark" unicode="&#x2122;" horiz-adv-x="552" 
d="M305 700l63 -107l67 107h37v-210h-38v149l-55 -90h-22l-52 93v-152h-37v210h37zM43 701h183v-37h-72v-174h-37v174h-74v37z" />
    <glyph glyph-name="onethird" unicode="&#x2153;" horiz-adv-x="685" 
d="M151 643h-116v37h153v-346h-37v309zM64 0l418 680h47l-417 -680h-48zM625 265q0 -23 -6.5 -37.5t-16.5 -23t-22.5 -13t-23.5 -7.5q11 -3 24 -7.5t24 -14t18.5 -24.5t7.5 -39v-16q0 -23 -11.5 -39.5t-30 -27.5t-42.5 -16.5t-49 -5.5t-48.5 7t-41.5 20t-29 31t-11 40h37
q0 -30 28 -45.5t65 -15.5q18 0 35 3t30.5 9t22 16t8.5 24v16q0 16 -8 28.5t-21.5 21t-30 13t-33.5 4.5h-62v37h56q17 0 34 2.5t30.5 9t21.5 18.5t8 31v8q0 18 -7.5 29.5t-20.5 18t-29.5 9t-33.5 2.5q-18 0 -35 -5t-30 -13.5t-20.5 -20.5t-7.5 -27h-37q0 21 11 39.5t29 33
t41.5 22.5t48.5 8t48 -4.5t41 -15.5t28.5 -29.5t10.5 -46.5v-7z" />
    <glyph glyph-name="twothirds" unicode="&#x2154;" horiz-adv-x="786" 
d="M223 0l418 680h47l-417 -680h-48zM736 271q0 -23 -6.5 -37.5t-16.5 -23t-22.5 -13t-23.5 -7.5q11 -3 24 -7.5t24 -14t18.5 -24.5t7.5 -39v-16q0 -23 -11.5 -39.5t-30 -27.5t-42.5 -16.5t-49 -5.5t-48.5 7t-41.5 20t-29 31t-11 40h37q0 -30 28 -45.5t65 -15.5q18 0 35 3
t30.5 9t22 16t8.5 24v16q0 16 -8 28.5t-21.5 21t-30 13t-33.5 4.5h-62v37h56q17 0 34 2.5t30.5 9t21.5 18.5t8 31v8q0 18 -7.5 29.5t-20.5 18t-29.5 9t-33.5 2.5q-18 0 -35 -5t-30 -13.5t-20.5 -20.5t-7.5 -27h-37q0 21 11 39.5t29 33t41.5 22.5t48.5 8t48 -4.5t41 -15.5
t28.5 -29.5t10.5 -46.5v-7zM254 694q38 0 63 -8t39.5 -22.5t20 -33t5.5 -39.5q0 -22 -9.5 -39.5t-25 -31.5t-35 -24.5t-39.5 -19.5q-24 -10 -47 -21t-41 -24t-29.5 -29t-11.5 -37h238v-37h-275v37q0 28 12 49t31.5 37.5t44.5 29.5t51 23q18 7 35.5 15t31.5 18t23 23t9 29
q0 13 -1.5 25t-10 21.5t-27 15.5t-52.5 6q-32 0 -56 -12.5t-44 -41.5l-29 25q24 33 57.5 49.5t71.5 16.5z" />
    <glyph glyph-name="minus" unicode="&#x2212;" horiz-adv-x="525" 
d="M470 351v-36h-415v36h415z" />
    <glyph glyph-name="asteriskmath" unicode="&#x2217;" horiz-adv-x="510" 
d="M399 420l11 -35l-129 -41l80 -110l-30 -22l-80 110l-83 -111l-30 22l82 111l-130 41l11 35l131 -41v135h38v-135z" />
    <glyph glyph-name="notequal" unicode="&#x2260;" horiz-adv-x="706" 
d="M476 443h175v-38h-200l-103 -157h303v-37h-328l-92 -140l-29 19l80 121h-227v37h252l104 157h-356v38h381l76 114l28 -18z" />
    <glyph glyph-name="lessequal" unicode="&#x2264;" horiz-adv-x="608" 
d="M532 104l-477 200l477 207v-37l-380 -169l380 -162v-39zM63 37h469v-37h-469v37z" />
    <glyph glyph-name="greaterequal" unicode="&#x2265;" horiz-adv-x="608" 
d="M545 0h-490v37h490v-37zM545 304l-490 -205v40l400 166l-400 172v42z" />
    <glyph glyph-name="Scaronsmall" unicode="&#xf6fd;" horiz-adv-x="509" 
d="M449 227v-85q0 -43 -14 -72t-39.5 -47t-60.5 -26t-77 -8q-31 0 -63 7.5t-60 21t-50 32.5t-33 42l32 20q9 -18 27 -34t41 -27.5t49.5 -18t52.5 -6.5q36 0 65 5t50 18.5t32 36t11 56.5v62l-336 112v88q0 45 19 72.5t48.5 43t63.5 20.5t64 5q59 0 104 -20t74 -62l-33 -22
q-25 34 -59.5 50.5t-82.5 16.5q-21 0 -48.5 -2.5t-52.5 -13t-42.5 -31.5t-17.5 -57v-64zM258 540l-101 107l28 21l72 -77l70 77l27 -21z" />
    <glyph glyph-name="Zcaronsmall" unicode="&#xf6ff;" horiz-adv-x="544" 
d="M474 37v-37h-399l-5 31l342 469h-326v36h380l2 -30l-341 -469h347zM274 540l-101 107l28 21l72 -77l70 77l27 -21z" />
    <glyph glyph-name="zerooldstyle" unicode="&#xf730;" horiz-adv-x="575" 
d="M288 500q50 0 92.5 -16t73.5 -43.5t48.5 -64.5t17.5 -79v-104q0 -42 -17.5 -79t-48.5 -64.5t-73.5 -43.5t-92.5 -16t-92.5 16t-74 43.5t-49 64.5t-17.5 79v104q0 42 17.5 78.5t49 64t74 44t92.5 16.5zM483 297q0 34 -14.5 64.5t-40.5 53t-62 35.5t-78 13t-78 -13
t-62 -35.5t-41 -53t-15 -64.5v-104q0 -34 15 -64.5t41 -53t62 -35.5t78 -13t78 13t62 35.5t40.5 53t14.5 64.5v104z" />
    <glyph glyph-name="oneoldstyle" unicode="&#xf731;" horiz-adv-x="396" 
d="M82 37h119v425h-115v37h152v-462h106v-37h-262v37z" />
    <glyph glyph-name="twooldstyle" unicode="&#xf732;" horiz-adv-x="558" 
d="M324 196q-54 -24 -90.5 -42t-59 -35.5t-32.5 -36.5t-10 -45h361v-37h-398v20q0 37 10.5 64.5t35.5 50.5t65 44.5t100 47.5t96 57.5t36 78.5q0 46 -36 73t-114 27q-22 0 -47.5 -5t-49.5 -14t-44 -22t-32 -28l-23 24q14 17 36.5 32t49.5 26t55.5 17.5t55.5 6.5
q92 0 139 -37t47 -96q0 -24 -6 -45.5t-23 -42.5t-46 -41.5t-76 -41.5z" />
    <glyph glyph-name="threeoldstyle" unicode="&#xf733;" horiz-adv-x="496" 
d="M403 314q0 -45 -27.5 -81t-72.5 -56q54 -14 85.5 -47t31.5 -92v-27q0 -62 -35.5 -105.5t-91 -71.5t-123 -40.5t-130.5 -12.5v37q57 0 117.5 11.5t111 35.5t82.5 60t32 85v27q0 31 -14 53t-36.5 36.5t-52 22t-60.5 9.5h-67v37h57q32 0 60.5 9.5t49.5 25.5t33.5 38t12.5 46
v44q0 51 -41.5 78t-105.5 27q-47 0 -89 -20.5t-61 -48.5l-27 26q12 17 31.5 31.5t42.5 25t49.5 17t53.5 6.5q40 0 74 -10t58.5 -28.5t38 -45t13.5 -58.5v-44z" />
    <glyph glyph-name="fouroldstyle" unicode="&#xf734;" horiz-adv-x="550" 
d="M417 37h123v-37h-123v-221h-37v221h-330v38l296 452h71v-453zM380 457h-13l-273 -420h286v420z" />
    <glyph glyph-name="fiveoldstyle" unicode="&#xf735;" horiz-adv-x="513" 
d="M233 256q44 0 82 -12t66.5 -35.5t45 -57t16.5 -75.5v-27q0 -54 -18 -95t-47.5 -71t-67 -50t-76.5 -31.5t-76.5 -16.5t-66.5 -5v34q16 0 45.5 2.5t64.5 10.5t71.5 23.5t66 42t48.5 64.5t19 92v27q0 62 -46 102.5t-127 40.5h-153l42 271h279v-40h-245l-32 -194h109v0z" />
    <glyph glyph-name="sixoldstyle" unicode="&#xf736;" horiz-adv-x="574" 
d="M292 415q43 0 80.5 -13t65.5 -36t44.5 -53.5t16.5 -65.5v-86q0 -34 -16.5 -64.5t-44.5 -53.5t-65.5 -36t-80.5 -13t-80.5 13t-65.5 36t-44.5 53.5t-16.5 64.5v374q0 31 17 59t45.5 49.5t66 34t78.5 12.5q53 0 95.5 -19.5t68.5 -55.5l-30 -21q-21 29 -56 44t-78 15
q-36 0 -67 -10.5t-53.5 -27.5t-35.5 -38t-13 -42v-191q29 32 73 51.5t96 19.5zM462 247q0 27 -13.5 51t-36.5 41.5t-54 28t-66 10.5t-65.5 -10.5t-53.5 -28t-36.5 -41.5t-13.5 -51v-86q0 -27 13.5 -50.5t36.5 -41.5t53.5 -28t65.5 -10t66 10t54 28t36.5 41.5t13.5 50.5v86z
" />
    <glyph glyph-name="sevenoldstyle" unicode="&#xf737;" horiz-adv-x="491" 
d="M15 490h442l-244 -701h-42l228 662h-384v39z" />
    <glyph glyph-name="eightoldstyle" unicode="&#xf738;" horiz-adv-x="584" 
d="M485 494q0 -44 -27 -80t-71 -56q50 -20 81 -57t31 -82v-72q0 -33 -16.5 -61.5t-44.5 -49.5t-65.5 -33.5t-80.5 -12.5t-81 12.5t-66 33.5t-44 49.5t-16 61.5v72q0 45 30.5 82t81.5 57q-45 20 -71.5 56.5t-26.5 79.5v39q0 32 15 60.5t41.5 50t61.5 34t75 12.5t75 -12.5
t61.5 -34t41.5 -50t15 -60.5v-39v0zM461 219q0 24 -12.5 45.5t-33.5 38t-50 26t-62 9.5h-22q-33 0 -62 -9.5t-50.5 -26t-34 -38t-12.5 -45.5v-72q0 -25 13.5 -46.5t36.5 -38t54 -26t66 -9.5t65.5 9.5t53.5 25.5t36.5 38t13.5 47v72zM136 494q0 -24 11.5 -44.5t31 -36.5
t46 -26t56.5 -12h22q30 2 56.5 12t46 26t30.5 36.5t11 44.5v39q0 25 -12 46.5t-33 38t-49.5 26t-60.5 9.5t-60.5 -9.5t-49.5 -26t-33.5 -38t-12.5 -46.5v-39v0z" />
    <glyph glyph-name="nineoldstyle" unicode="&#xf739;" horiz-adv-x="572" 
d="M282 484q43 0 80.5 -13t65 -36t43.5 -53t16 -65v-248q0 -76 -30 -131t-77.5 -90t-106 -52t-114.5 -17v32q23 0 53.5 4.5t63 15.5t64 29.5t56 47.5t39.5 68.5t15 92.5v37q-28 -32 -72 -50.5t-96 -18.5q-43 0 -81 13.5t-66 36t-44 53.5t-16 65v112q0 35 16 65t44 53t66 36
t81 13zM450 317q0 27 -13 50.5t-36 41.5t-53.5 28t-65.5 10t-66 -10t-54 -28t-36.5 -41.5t-13.5 -50.5v-112q0 -27 13.5 -51t36.5 -41.5t54 -28t66 -10.5t65.5 10.5t53.5 28t36 41.5t13 51v112z" />
    <glyph glyph-name="Asmall" unicode="&#xf761;" horiz-adv-x="552" 
d="M294 545l226 -545h-39l-77 183h-255l-78 -183h-41l231 545h33zM389 220l-111 270l-113 -270h224z" />
    <glyph glyph-name="Bsmall" unicode="&#xf762;" horiz-adv-x="526" 
d="M443 382q0 -34 -15.5 -61t-43.5 -44q39 -19 60 -52t22 -73v-16q0 -25 -10 -49.5t-29 -43.5t-46 -31t-62 -12h-219v534h197q35 0 62 -12t46 -31.5t28.5 -44t9.5 -50.5v-14zM429 152q0 18 -7 36.5t-21 32.5t-34.5 23t-47.5 9h-181v-216h181q22 0 42 8.5t35 22.5t24 32t9 36
v16zM138 290h174q19 2 36 9.5t30 19.5t20.5 28t7.5 35v14q-1 42 -33.5 71.5t-84.5 29.5h-150v-207z" />
    <glyph glyph-name="Csmall" unicode="&#xf763;" horiz-adv-x="492" 
d="M274 500q-37 0 -69 -14t-56 -37t-38 -52t-14 -59v-143q0 -31 13.5 -60.5t37 -52t56 -36t70.5 -13.5q41 0 82 13t68 38l18 -33q-32 -26 -77.5 -40.5t-90.5 -14.5q-46 0 -85.5 16.5t-68 44t-44.5 63.5t-16 75v143q0 38 16.5 74t45.5 63.5t68 44.5t84 17q44 0 88 -16t75 -45
l-22 -32q-24 27 -63.5 41.5t-77.5 14.5z" />
    <glyph glyph-name="Dsmall" unicode="&#xf764;" horiz-adv-x="555" 
d="M272 536q45 0 85 -15.5t71 -41.5t49 -60t18 -72v-158q0 -39 -17.5 -73.5t-48 -60t-71 -40.5t-86.5 -15h-172v536h172zM458 347q0 30 -15.5 57.5t-41 48.5t-59 33.5t-70.5 12.5h-135v-462h135q38 0 72 12t59.5 32.5t40 48.5t14.5 59v158z" />
    <glyph glyph-name="Esmall" unicode="&#xf765;" horiz-adv-x="474" 
d="M140 250v-213h274v-37h-313v537h291v-37h-253v-213h212v-37h-211z" />
    <glyph glyph-name="Fsmall" unicode="&#xf766;" horiz-adv-x="431" 
d="M391 499h-253v-212h213v-37h-212v-250h-39v536h291v-37z" />
    <glyph glyph-name="Gsmall" unicode="&#xf767;" horiz-adv-x="558" 
d="M271 268h207v-210q-18 -13 -38.5 -25t-45.5 -21t-55 -14.5t-67 -5.5q-45 0 -84 16t-67.5 43t-44.5 63.5t-16 76.5v156q0 38 18 74t49 63.5t71 44.5t85 17q52 0 101.5 -21.5t77.5 -56.5l-31 -23q-22 29 -63 46.5t-85 17.5q-36 0 -70 -14t-59.5 -37t-41 -52t-15.5 -59v-156
q0 -33 13.5 -62.5t37 -51.5t55.5 -35t69 -13q62 0 101 15t66 33v154h-168v37z" />
    <glyph glyph-name="Hsmall" unicode="&#xf768;" horiz-adv-x="636" 
d="M499 537h37v-537h-37v257h-362v-257h-37v537h37v-243h362v243z" />
    <glyph glyph-name="Ismall" unicode="&#xf769;" horiz-adv-x="257" 
d="M110 537h37v-537h-37v537z" />
    <glyph glyph-name="Jsmall" unicode="&#xf76a;" horiz-adv-x="455" 
d="M318 536h37v-409q0 -28 -12.5 -53.5t-34.5 -44t-51.5 -29.5t-62.5 -11q-34 0 -64 11t-52 29.5t-35 44t-13 53.5h37q0 -21 10 -39.5t27.5 -32t40.5 -21.5t49 -8t48.5 8t39 21.5t26.5 32t10 39.5v409z" />
    <glyph glyph-name="Ksmall" unicode="&#xf76b;" horiz-adv-x="555" 
d="M138 272l321 264h59l-291 -240l318 -296h-55l-292 272l-60 -48v-224h-38v536h38v-264z" />
    <glyph glyph-name="Lsmall" unicode="&#xf76c;" horiz-adv-x="446" 
d="M139 537v-500h297v-37h-334v537h37z" />
    <glyph glyph-name="Msmall" unicode="&#xf76d;" horiz-adv-x="728" 
d="M144 536l220 -306l219 306h45v-536h-38v482l-213 -297h-26l-214 297v-482h-37v536h44z" />
    <glyph glyph-name="Nsmall" unicode="&#xf76e;" horiz-adv-x="658" 
d="M521 537h37v-537h-40l-381 475v-475h-37v537h37l384 -481v481z" />
    <glyph glyph-name="Osmall" unicode="&#xf76f;" horiz-adv-x="602" 
d="M309 546q45 0 85 -17t71 -44.5t49 -63.5t18 -74v-160q0 -39 -17.5 -75.5t-48 -64t-71 -44t-87.5 -16.5h-14q-46 0 -87 16.5t-71.5 44t-48 64t-17.5 75.5v160q0 38 18 74t49 63.5t71.5 44.5t85.5 17h15v0zM495 347q0 30 -15.5 59t-41 52t-59.5 37t-70 14h-15
q-36 0 -70 -14t-60 -37t-41.5 -52t-15.5 -59v-160q0 -31 15 -60.5t40.5 -52.5t59.5 -36.5t72 -13.5h14q39 0 73 13.5t59.5 36.5t40 52.5t14.5 60.5v160z" />
    <glyph glyph-name="Psmall" unicode="&#xf770;" horiz-adv-x="506" 
d="M100 537h182q33 0 63 -11.5t52.5 -31t36 -46.5t13.5 -58v-22q0 -29 -13.5 -54t-36 -44t-52.5 -29.5t-64 -10.5h-143v-230h-38v537zM406 388q0 48 -35 80t-89 32h-144v-233h144q26 0 48.5 8t39.5 21.5t26.5 32t9.5 39.5v20z" />
    <glyph glyph-name="Qsmall" unicode="&#xf771;" horiz-adv-x="606" 
d="M483 3q15 -15 30.5 -23t26.5 -8h16v-37h-21q-24 2 -43.5 13.5t-36.5 28.5l-34 44q-52 -25 -113 -25h-14q-46 0 -87 16.5t-71.5 44t-48 63.5t-17.5 75v149q0 38 18 74t49 63.5t71.5 44.5t85.5 17h14q45 0 85.5 -16t71.5 -42.5t49 -61.5t18 -73v-155q0 -44 -21.5 -86
t-57.5 -68zM308 33q23 0 45 3.5t45 15.5l-71 98l30 21l74 -100q29 21 46 55t17 69v149q0 32 -15.5 61.5t-41 51.5t-59.5 35.5t-70 13.5h-14q-37 0 -70.5 -14t-59.5 -37t-41.5 -52t-15.5 -59v-149q0 -31 14.5 -60.5t40 -52t59.5 -36t73 -13.5h14z" />
    <glyph glyph-name="Rsmall" unicode="&#xf772;" horiz-adv-x="553" 
d="M471 376q0 -27 -11 -51.5t-29.5 -44t-44.5 -33t-56 -16.5l143 -231h-44l-143 231h-148v-231h-38v537h215q33 0 61.5 -11t49.5 -29.5t33 -44.5t12 -56v-20v0zM138 268h186q23 0 43 8.5t35 23t23.5 34t8.5 41.5v20q0 23 -10 42t-26.5 33t-38 22t-44.5 8h-177v-232z" />
    <glyph glyph-name="Ssmall" unicode="&#xf773;" horiz-adv-x="509" 
d="M276 297q34 -9 65.5 -20.5t55.5 -28.5t38 -42.5t14 -63.5q0 -43 -14 -72t-39.5 -47t-60.5 -26t-77 -8q-31 0 -63 6.5t-60 18.5t-50 29t-33 39l32 20q9 -17 27 -31t41 -24t49.5 -15.5t52.5 -5.5q36 0 65 5t50 18.5t32 36t11 56.5q0 25 -10 42.5t-29 30.5t-47.5 23
t-64.5 20q-32 9 -66 20t-61.5 27.5t-45 40.5t-17.5 58q0 45 19 72.5t48.5 43t63.5 20.5t64 5q59 0 102.5 -20t65.5 -55l-33 -22q-17 26 -50.5 43t-81.5 17q-21 0 -48.5 -2.5t-52.5 -13t-42.5 -31.5t-17.5 -57q0 -23 13 -39t35.5 -28t53 -21.5t66.5 -18.5z" />
    <glyph glyph-name="Tsmall" unicode="&#xf774;" horiz-adv-x="473" 
d="M20 536h433v-37h-199v-499h-37v499h-197v37z" />
    <glyph glyph-name="Usmall" unicode="&#xf775;" horiz-adv-x="633" 
d="M496 536h37v-341q0 -39 -14 -75t-41 -63.5t-68 -44t-95 -16.5q-46 0 -85.5 15t-68 41.5t-45 63t-16.5 79.5v341h37v-341q0 -28 10.5 -57t32.5 -52t56 -38t80 -15q39 0 72 13.5t57 36t37.5 52t13.5 60.5v341z" />
    <glyph glyph-name="Vsmall" unicode="&#xf776;" horiz-adv-x="550" 
d="M72 536l202 -481l205 481h41l-229 -536h-35l-226 536h42z" />
    <glyph glyph-name="Wsmall" unicode="&#xf777;" horiz-adv-x="761" 
d="M399 533l148 -467l144 471h40l-166 -537h-36l-148 468l-152 -468h-36l-163 537h39l143 -471l151 467h36z" />
    <glyph glyph-name="Xsmall" unicode="&#xf778;" horiz-adv-x="605" 
d="M118 537l186 -235l189 235h49l-213 -265l216 -272h-49l-192 242l-195 -242h-49l220 272l-210 265h48z" />
    <glyph glyph-name="Ysmall" unicode="&#xf779;" horiz-adv-x="557" 
d="M77 536l195 -268l199 268h46l-227 -305v-231h-37v231l-223 305h47z" />
    <glyph glyph-name="Zsmall" unicode="&#xf77a;" horiz-adv-x="544" 
d="M474 37v-37h-399l-5 31l342 469h-326v36h380l2 -30l-341 -469h347z" />
    <glyph glyph-name="Agravesmall" unicode="&#xf7e0;" horiz-adv-x="552" 
d="M294 545l226 -545h-39l-77 183h-255l-78 -183h-41l231 545h33zM389 220l-111 270l-113 -270h224zM216 750l90 -143l-30 -21l-99 133z" />
    <glyph glyph-name="Aacutesmall" unicode="&#xf7e1;" horiz-adv-x="552" 
d="M294 545l226 -545h-39l-77 183h-255l-78 -183h-41l231 545h33zM389 220l-111 270l-113 -270h224zM339 744l34 -26l-97 -127l-31 19z" />
    <glyph glyph-name="Acircumflexsmall" unicode="&#xf7e2;" horiz-adv-x="552" 
d="M294 545l226 -545h-39l-77 183h-255l-78 -183h-41l231 545h33zM389 220l-111 270l-113 -270h224zM275 721l121 -81l-22 -29l-98 66l-100 -65l-20 28z" />
    <glyph glyph-name="Atildesmall" unicode="&#xf7e3;" horiz-adv-x="552" 
d="M294 545l226 -545h-39l-77 183h-255l-78 -183h-41l231 545h33zM389 220l-111 270l-113 -270h224zM213 676q-18 0 -29 -10.5t-18 -24.5l-33 19q17 28 35.5 43t45.5 15q18 0 34.5 -7.5t33 -17t33 -17.5t33.5 -8q12 2 20.5 10.5t16.5 22.5l34 -17q-11 -22 -30.5 -39
t-45.5 -17q-22 0 -39.5 7.5t-32.5 16.5t-29 16.5t-29 7.5z" />
    <glyph glyph-name="Adieresissmall" unicode="&#xf7e4;" horiz-adv-x="552" 
d="M294 545l226 -545h-39l-77 183h-255l-78 -183h-41l231 545h33zM389 220l-111 270l-113 -270h224zM224 616h-58v64h58v-64zM386 616h-58v64h58v-64z" />
    <glyph glyph-name="Aringsmall" unicode="&#xf7e5;" horiz-adv-x="552" 
d="M294 545l226 -545h-39l-77 183h-255l-78 -183h-41l231 545h33zM389 220l-111 270l-113 -270h224zM275 597q-16 0 -30 6t-25 16.5t-17.5 25t-6.5 30.5q0 33 23.5 55t55.5 22t56 -22t24 -55q0 -32 -24 -55t-56 -23zM233 673q0 -17 13 -29t30 -12t29.5 12t12.5 29
q0 18 -12.5 31t-29.5 13t-30 -13t-13 -31z" />
    <glyph glyph-name="Ccedillasmall" unicode="&#xf7e7;" horiz-adv-x="492" 
d="M274 500q-37 0 -69 -14t-56 -37t-38 -52t-14 -59v-143q0 -31 13.5 -60.5t37 -52t56 -36t70.5 -13.5q41 0 82 13t68 38l18 -33q-32 -26 -77.5 -40.5t-90.5 -14.5q-46 0 -85.5 16.5t-68 44t-44.5 63.5t-16 75v143q0 38 16.5 74t45.5 63.5t68 44.5t84 17q44 0 88 -16t75 -45
l-22 -32q-24 27 -63.5 41.5t-77.5 14.5zM286 0l-17 -54q19 -8 34 -20q13 -11 23 -28t10 -42q0 -38 -27 -63t-69 -36l-12 28q10 3 22.5 8.5t23.5 13.5t18.5 18.5t7.5 23.5q0 22 -11.5 35.5t-25.5 21.5q-17 9 -38 13l20 81h41z" />
    <glyph glyph-name="Egravesmall" unicode="&#xf7e8;" horiz-adv-x="474" 
d="M140 250v-213h274v-37h-313v537h291v-37h-253v-213h212v-37h-211zM197 750l90 -143l-30 -21l-99 133z" />
    <glyph glyph-name="Eacutesmall" unicode="&#xf7e9;" horiz-adv-x="474" 
d="M140 250v-213h274v-37h-313v537h291v-37h-253v-213h212v-37h-211zM320 744l34 -26l-97 -127l-31 19z" />
    <glyph glyph-name="Ecircumflexsmall" unicode="&#xf7ea;" horiz-adv-x="474" 
d="M140 250v-213h274v-37h-313v537h291v-37h-253v-213h212v-37h-211zM256 721l121 -81l-22 -29l-98 66l-100 -65l-20 28z" />
    <glyph glyph-name="Edieresissmall" unicode="&#xf7eb;" horiz-adv-x="474" 
d="M140 250v-213h274v-37h-313v537h291v-37h-253v-213h212v-37h-211zM205 616h-58v64h58v-64zM367 616h-58v64h58v-64z" />
    <glyph glyph-name="Igravesmall" unicode="&#xf7ec;" horiz-adv-x="257" 
d="M110 537h37v-537h-37v537zM70 750l90 -143l-30 -21l-99 133z" />
    <glyph glyph-name="Iacutesmall" unicode="&#xf7ed;" horiz-adv-x="257" 
d="M110 537h37v-537h-37v537zM191 744l34 -26l-97 -127l-31 19z" />
    <glyph glyph-name="Icircumflexsmall" unicode="&#xf7ee;" horiz-adv-x="257" 
d="M110 537h37v-537h-37v537zM129 721l121 -81l-22 -29l-98 66l-100 -65l-20 28z" />
    <glyph glyph-name="Idieresissmall" unicode="&#xf7ef;" horiz-adv-x="257" 
d="M110 537h37v-537h-37v537zM78 616h-58v64h58v-64zM240 616h-58v64h58v-64z" />
    <glyph glyph-name="Ntildesmall" unicode="&#xf7f1;" horiz-adv-x="658" 
d="M521 537h37v-537h-40l-381 475v-475h-37v537h37l384 -481v481zM266 676q-18 0 -29 -10.5t-18 -24.5l-33 19q17 28 35.5 43t45.5 15q18 0 34.5 -7.5t33 -17t33 -17.5t33.5 -8q12 2 20.5 10.5t16.5 22.5l34 -17q-11 -22 -30.5 -39t-45.5 -17q-22 0 -39.5 7.5t-32.5 16.5
t-29 16.5t-29 7.5z" />
    <glyph glyph-name="Ogravesmall" unicode="&#xf7f2;" horiz-adv-x="602" 
d="M309 546q45 0 85 -17t71 -44.5t49 -63.5t18 -74v-160q0 -39 -17.5 -75.5t-48 -64t-71 -44t-87.5 -16.5h-14q-46 0 -87 16.5t-71.5 44t-48 64t-17.5 75.5v160q0 38 18 74t49 63.5t71.5 44.5t85.5 17h15v0zM495 347q0 30 -15.5 59t-41 52t-59.5 37t-70 14h-15
q-36 0 -70 -14t-60 -37t-41.5 -52t-15.5 -59v-160q0 -31 15 -60.5t40.5 -52.5t59.5 -36.5t72 -13.5h14q39 0 73 13.5t59.5 36.5t40 52.5t14.5 60.5v160zM241 750l90 -143l-30 -21l-99 133z" />
    <glyph glyph-name="Oacutesmall" unicode="&#xf7f3;" horiz-adv-x="602" 
d="M309 546q45 0 85 -17t71 -44.5t49 -63.5t18 -74v-160q0 -39 -17.5 -75.5t-48 -64t-71 -44t-87.5 -16.5h-14q-46 0 -87 16.5t-71.5 44t-48 64t-17.5 75.5v160q0 38 18 74t49 63.5t71.5 44.5t85.5 17h15v0zM495 347q0 30 -15.5 59t-41 52t-59.5 37t-70 14h-15
q-36 0 -70 -14t-60 -37t-41.5 -52t-15.5 -59v-160q0 -31 15 -60.5t40.5 -52.5t59.5 -36.5t72 -13.5h14q39 0 73 13.5t59.5 36.5t40 52.5t14.5 60.5v160zM364 744l34 -26l-97 -127l-31 19z" />
    <glyph glyph-name="Ocircumflexsmall" unicode="&#xf7f4;" horiz-adv-x="602" 
d="M309 546q45 0 85 -17t71 -44.5t49 -63.5t18 -74v-160q0 -39 -17.5 -75.5t-48 -64t-71 -44t-87.5 -16.5h-14q-46 0 -87 16.5t-71.5 44t-48 64t-17.5 75.5v160q0 38 18 74t49 63.5t71.5 44.5t85.5 17h15v0zM495 347q0 30 -15.5 59t-41 52t-59.5 37t-70 14h-15
q-36 0 -70 -14t-60 -37t-41.5 -52t-15.5 -59v-160q0 -31 15 -60.5t40.5 -52.5t59.5 -36.5t72 -13.5h14q39 0 73 13.5t59.5 36.5t40 52.5t14.5 60.5v160zM300 721l121 -81l-22 -29l-98 66l-100 -65l-20 28z" />
    <glyph glyph-name="Otildesmall" unicode="&#xf7f5;" horiz-adv-x="602" 
d="M309 546q45 0 85 -17t71 -44.5t49 -63.5t18 -74v-160q0 -39 -17.5 -75.5t-48 -64t-71 -44t-87.5 -16.5h-14q-46 0 -87 16.5t-71.5 44t-48 64t-17.5 75.5v160q0 38 18 74t49 63.5t71.5 44.5t85.5 17h15v0zM495 347q0 30 -15.5 59t-41 52t-59.5 37t-70 14h-15
q-36 0 -70 -14t-60 -37t-41.5 -52t-15.5 -59v-160q0 -31 15 -60.5t40.5 -52.5t59.5 -36.5t72 -13.5h14q39 0 73 13.5t59.5 36.5t40 52.5t14.5 60.5v160zM238 676q-18 0 -29 -10.5t-18 -24.5l-33 19q17 28 35.5 43t45.5 15q18 0 34.5 -7.5t33 -17t33 -17.5t33.5 -8
q12 2 20.5 10.5t16.5 22.5l34 -17q-11 -22 -30.5 -39t-45.5 -17q-22 0 -39.5 7.5t-32.5 16.5t-29 16.5t-29 7.5z" />
    <glyph glyph-name="Odieresissmall" unicode="&#xf7f6;" horiz-adv-x="602" 
d="M309 546q45 0 85 -17t71 -44.5t49 -63.5t18 -74v-160q0 -39 -17.5 -75.5t-48 -64t-71 -44t-87.5 -16.5h-14q-46 0 -87 16.5t-71.5 44t-48 64t-17.5 75.5v160q0 38 18 74t49 63.5t71.5 44.5t85.5 17h15v0zM495 347q0 30 -15.5 59t-41 52t-59.5 37t-70 14h-15
q-36 0 -70 -14t-60 -37t-41.5 -52t-15.5 -59v-160q0 -31 15 -60.5t40.5 -52.5t59.5 -36.5t72 -13.5h14q39 0 73 13.5t59.5 36.5t40 52.5t14.5 60.5v160zM249 616h-58v64h58v-64zM411 616h-58v64h58v-64z" />
    <glyph glyph-name="Ugravesmall" unicode="&#xf7f9;" horiz-adv-x="633" 
d="M496 536h37v-341q0 -39 -14 -75t-41 -63.5t-68 -44t-95 -16.5q-46 0 -85.5 15t-68 41.5t-45 63t-16.5 79.5v341h37v-341q0 -28 10.5 -57t32.5 -52t56 -38t80 -15q39 0 72 13.5t57 36t37.5 52t13.5 60.5v341zM256 740l90 -143l-30 -21l-99 133z" />
    <glyph glyph-name="Uacutesmall" unicode="&#xf7fa;" horiz-adv-x="633" 
d="M496 536h37v-341q0 -39 -14 -75t-41 -63.5t-68 -44t-95 -16.5q-46 0 -85.5 15t-68 41.5t-45 63t-16.5 79.5v341h37v-341q0 -28 10.5 -57t32.5 -52t56 -38t80 -15q39 0 72 13.5t57 36t37.5 52t13.5 60.5v341zM379 734l34 -26l-97 -127l-31 19z" />
    <glyph glyph-name="Ucircumflexsmall" unicode="&#xf7fb;" horiz-adv-x="633" 
d="M496 536h37v-341q0 -39 -14 -75t-41 -63.5t-68 -44t-95 -16.5q-46 0 -85.5 15t-68 41.5t-45 63t-16.5 79.5v341h37v-341q0 -28 10.5 -57t32.5 -52t56 -38t80 -15q39 0 72 13.5t57 36t37.5 52t13.5 60.5v341zM315 721l121 -81l-22 -29l-98 66l-100 -65l-20 28z" />
    <glyph glyph-name="Udieresissmall" unicode="&#xf7fc;" horiz-adv-x="633" 
d="M496 536h37v-341q0 -39 -14 -75t-41 -63.5t-68 -44t-95 -16.5q-46 0 -85.5 15t-68 41.5t-45 63t-16.5 79.5v341h37v-341q0 -28 10.5 -57t32.5 -52t56 -38t80 -15q39 0 72 13.5t57 36t37.5 52t13.5 60.5v341zM264 616h-58v64h58v-64zM426 616h-58v64h58v-64z" />
    <glyph glyph-name="Yacutesmall" unicode="&#xf7fd;" horiz-adv-x="557" 
d="M77 536l195 -268l199 268h46l-227 -305v-231h-37v231l-223 305h47zM336 734l34 -26l-97 -127l-31 19z" />
    <glyph glyph-name="Ydieresissmall" unicode="&#xf7ff;" horiz-adv-x="557" 
d="M77 536l195 -268l199 268h46l-227 -305v-231h-37v231l-223 305h47zM221 616h-58v64h58v-64zM383 616h-58v64h58v-64z" />
    <glyph glyph-name="ffi" unicode="&#xfb03;" horiz-adv-x="771" 
d="M239 724q43 0 89 -15t84 -35q2 5 12 14t27 19t40.5 17t52.5 7t56.5 -8.5t50.5 -19.5q26 -12 50 -29l-20 -30q-22 14 -46 25q-20 10 -44 17.5t-47 7.5q-53 0 -87.5 -29.5t-34.5 -75.5v-99h120v-37h-120v-453h-37v453h-107v37h107v99q0 28 10 51q-35 20 -75.5 33.5
t-80.5 13.5q-54 0 -83 -30.5t-29 -74.5v-90h90v-37h-90v-455h-37v455h-107v37h107v90q0 29 10 55t29.5 45.5t47 30.5t62.5 11zM660 490h37v-490h-37v490z" />
    <glyph glyph-name="ffl" unicode="&#xfb04;" horiz-adv-x="794" 
d="M256 724q32 0 74.5 -13.5t78.5 -30.5q22 24 54.5 37.5t73.5 13.5q17 0 38 -3t42 -8.5t40 -12t32 -13.5h15v-694h-39v665q-14 7 -31 12.5t-34.5 9t-34 5.5t-28.5 2q-54 0 -88.5 -26.5t-34.5 -78.5v-99h121v-37h-121v-453h-37v453h-101v37h101v99q0 33 12 58
q-32 17 -68 28.5t-65 11.5q-54 0 -83 -30.5t-29 -74.5v-90h90v-37h-90v-455h-37v455h-107v37h107v90q0 29 10 55t29.5 45.5t47 30.5t62.5 11z" />
    <glyph glyph-name="glyph57" horiz-adv-x="675" 
d="M521 16q12 -17 22.5 -27t22 -16t25.5 -8.5t34 -2.5v-37q-25 0 -43 2.5t-33 10t-29 21.5t-31 36l-22 29q-37 -18 -70.5 -24t-74.5 -6q-51 0 -97.5 14t-82 41t-56.5 66t-21 90v274q0 50 22.5 89t59.5 66t84.5 41.5t98.5 14.5t98.5 -13.5t84 -40.5t58.5 -66.5t22 -90.5v-274
q0 -50 -25.5 -93t-65.5 -70zM322 31q30 0 61.5 5t60.5 19l-96 129l30 22l100 -133q35 23 56.5 55t21.5 77v274q0 42 -19.5 74.5t-51 54.5t-72.5 33.5t-83 11.5t-83 -11.5t-73 -34t-52 -55t-20 -73.5v-274q0 -43 18.5 -76t49.5 -54.5t70.5 -32.5t81.5 -11z" />
    <glyph glyph-name="Q.alt" horiz-adv-x="658" 
d="M348 -66l255 -55l-8 -37l-285 63v85q-52 0 -98.5 16.5t-81.5 44.5t-55 66t-20 80v288q0 40 20.5 77t56 65.5t82 45.5t97.5 17h17q51 0 97.5 -17t81.5 -45.5t55.5 -65.5t20.5 -77v-288q0 -41 -18.5 -77.5t-50 -64t-74.5 -45t-92 -20.5v-56zM92 197q0 -35 17 -66t47 -54
t69.5 -36.5t84.5 -13.5h37q42 3 78.5 17.5t63 37t42 52.5t15.5 63v288q0 32 -18 62t-48 53.5t-69.5 38t-82.5 14.5h-17q-43 0 -82.5 -14.5t-70 -38t-48.5 -53.5t-18 -62v-288v0z" />
    <glyph glyph-name="y.alt" horiz-adv-x="469" 
d="M234 55l174 435l36 -11l-294 -722l-35 14l98 233l-188 478l35 8z" />
    <glyph glyph-name="k.alt" horiz-adv-x="511" 
d="M122 710v-427l276 217l25 -29l-260 -203q47 -6 94.5 -34t88 -67t70.5 -83.5t40 -83.5h-40q-10 23 -20.5 43.5t-25 41.5t-34 42t-48.5 45q-19 16 -44.5 28t-49.5 20t-44 13l-28 7v-240h-37v710h37z" />
    <glyph glyph-name="g.alt" horiz-adv-x="535" 
d="M104 299q0 -24 13 -45t34.5 -36t49.5 -23.5t58 -8.5q31 0 57 7.5t45 21t30 33.5t11 44v63q-3 53 -45 83t-104 30q-30 0 -57.5 -8.5t-47.5 -24t-32 -36t-12 -44.5v-56v0zM154 30q-28 9 -45 28.5t-17 48.5t18 44.5t41 23.5q-37 21 -60.5 52.5t-23.5 71.5v53q0 32 13 60
t37.5 48.5t59 32.5t76.5 12q33 0 62 -9t52 -24l112 38l11 -40l-89 -27q38 -38 38 -88v-56q0 -32 -13 -59.5t-36.5 -47.5t-56 -31.5t-71.5 -11.5q-20 0 -39 2t-39 7q-19 -3 -36.5 -13.5t-17.5 -34.5q0 -14 5.5 -23t13.5 -15t18.5 -9.5t20.5 -6.5l266 -82v-87q0 -32 -16 -55
t-43 -37.5t-61 -21.5t-70 -7h-10q-36 0 -71 7.5t-62 23t-44 40t-17 58.5q0 17 4 33t10 31l34 -13q-4 -13 -7 -25.5t-4 -25.5q0 -25 14 -42.5t36.5 -28.5t50.5 -16t56 -5h10q27 0 54.5 4.5t49.5 15t35.5 27t13.5 39.5v57z" />
    <glyph glyph-name="e.alt" horiz-adv-x="482" 
d="M268 30q20 0 41 3.5t40 9.5t35 14.5t26 18.5l23 -29q-15 -13 -35 -23t-42 -17t-44.5 -10.5t-43.5 -3.5q-40 0 -78 11t-68 32t-48.5 52.5t-18.5 72.5v174q0 33 16 63t43 53t62.5 36.5t74.5 13.5q38 0 71 -13t58 -35.5t40 -53t15 -64.5v-88h-343v-86q0 -33 15 -57.5t40 -41
t56.5 -24.5t64.5 -8zM251 464q-31 0 -60 -10t-51 -26.5t-35 -39t-13 -47.5v-57h305v54q0 27 -11.5 50t-31.5 40t-46.5 26.5t-56.5 9.5z" />
    <glyph glyph-name="germandbls.alt" horiz-adv-x="641" 
d="M159 0h-37v434h-72v37h71v97q0 38 13.5 69.5t38.5 54t60 35t77 12.5q44 0 81.5 -11.5t64.5 -33.5t42.5 -52.5t15.5 -69.5l-119 -163q46 -14 81 -39q30 -21 55 -55.5t25 -85.5v-96q0 -32 -12.5 -58t-34.5 -44.5t-52 -28.5t-65 -10q-66 0 -109 25.5t-64 64.5l32 20
q8 -12 19 -25t27.5 -23.5t40 -17.5t55.5 -7q27 0 50 7t40 20t26.5 32.5t9.5 44.5v96q0 23 -8 42.5t-21 35t-29.5 28t-33.5 21.5q-40 22 -93 34l136 188q0 26 -11.5 48.5t-32.5 39.5t-50.5 26.5t-65.5 9.5q-69 0 -110 -36.5t-41 -96.5v-569z" />
    <glyph glyph-name="germandbls.alt2" horiz-adv-x="594" 
d="M132 0h-37v559q0 38 14 71.5t39 58t60 38.5t77 14q36 0 72.5 -9.5t65 -29.5t46.5 -52.5t18 -78.5q-29 -28 -47 -49.5t-28.5 -40.5t-14 -38t-3.5 -42q0 -21 6 -37.5t15.5 -29.5t22 -24t25.5 -22q15 -13 30.5 -26.5t28 -31.5t20 -41.5t7.5 -55.5t-14.5 -58t-39 -44.5
t-58 -28.5t-72.5 -10q-56 0 -101 23.5t-63 65.5l35 14q14 -26 44.5 -46t90.5 -20q27 0 52 7t45 20t32 32.5t12 44.5q0 30 -8 51.5t-21 37t-29.5 28t-32.5 25.5q-13 10 -24.5 21.5t-20.5 26.5t-14 34t-5 44q0 21 2.5 42t11.5 43t26.5 45t47.5 47q0 35 -14 59t-37 39
t-51.5 21.5t-57.5 6.5q-34 0 -62.5 -11.5t-48.5 -31t-31 -46t-11 -56.5v-559z" />
    <glyph glyph-name="zero.small" horiz-adv-x="655" 
d="M328 540q50 0 94 -17.5t77 -47t52 -68t19 -80.5v-128q0 -42 -19 -80.5t-52 -68t-77 -47t-94 -17.5t-94 17.5t-77 47t-52.5 68t-19.5 80.5v128q0 42 19.5 80.5t52.5 68t77 47t94 17.5zM533 327q0 34 -16 66t-44 56.5t-65.5 39t-79.5 14.5t-79.5 -14.5t-65.5 -39
t-44.5 -56.5t-16.5 -66v-128q0 -34 16.5 -66t44.5 -56.5t65.5 -39t79.5 -14.5t79.5 14.5t65.5 39t44 56.5t16 66v128z" />
    <glyph glyph-name="one.small" horiz-adv-x="343" 
d="M201 504h-146v37h183v-541h-37v504z" />
    <glyph glyph-name="two.small" horiz-adv-x="558" 
d="M324 237q-54 -24 -89.5 -48.5t-56.5 -49.5t-30.5 -50.5t-12.5 -51.5h358v-37h-398v13q0 37 10.5 72t35.5 67t65 61t100 55t96 57t36 78q0 54 -36 82t-114 28q-56 0 -102.5 -24t-70.5 -55l-23 27q28 35 78 62t119 27q92 0 139 -38.5t47 -104.5q0 -24 -6 -45.5t-23 -42
t-46 -41t-76 -41.5z" />
    <glyph glyph-name="three.small" horiz-adv-x="574" 
d="M474 413q0 -45 -24 -76t-69 -51q48 -20 74.5 -47t26.5 -72v-37q0 -32 -16.5 -57.5t-44.5 -43.5t-65 -27.5t-78 -9.5q-40 0 -75 9t-61.5 26.5t-41.5 42.5t-15 58h37q0 -25 12.5 -43.5t33.5 -31t49.5 -18.5t60.5 -6q33 0 63 7t53 19.5t36.5 31.5t13.5 43v37q0 23 -12.5 42
t-34 32.5t-50 21t-59.5 7.5h-77v37h77q32 0 59 7.5t47 21t31.5 33.5t11.5 44v10q0 25 -12.5 45t-34 33.5t-50 20.5t-60.5 7t-60.5 -7t-50 -20t-34 -32t-12.5 -44h-37q0 32 16 58t43 44t61.5 28t70.5 10q40 0 76 -10t63 -28.5t42.5 -45t15.5 -58.5v-11z" />
    <glyph glyph-name="four.small" horiz-adv-x="570" 
d="M412 192h111v-36h-111v-156h-37v156h-290v36l267 345h60v-345zM375 504h-5l-234 -312h239v312z" />
    <glyph glyph-name="five.small" horiz-adv-x="590" 
d="M305 335q88 0 139 -38.5t51 -101.5v-58q0 -71 -53.5 -110.5t-141.5 -39.5t-135.5 39.5t-47.5 110.5h37q0 -55 37 -84t109 -29t115 29t43 84v58q0 47 -40 75t-113 28h-157l25 239h289v-38h-255l-14 -164h112v0z" />
    <glyph glyph-name="six.small" horiz-adv-x="574" 
d="M295 355q43 0 78.5 -13t61 -35.5t40 -53t14.5 -65.5v-37q0 -34 -14.5 -64.5t-41 -53.5t-62.5 -36t-79 -13t-77.5 13t-59 36t-37.5 53.5t-13 64.5v244q0 31 12 60.5t35 52.5t56 37t74 14q53 0 100.5 -19.5t73.5 -55.5l-31 -24q-21 29 -60.5 45.5t-82.5 16.5
q-36 0 -62.5 -12t-43.5 -30.5t-25 -41t-8 -43.5v-115q7 14 22 27t35.5 24t44.5 17.5t50 6.5zM452 188q0 27 -11.5 50.5t-32 41.5t-49.5 28t-64 10t-63 -10t-48 -28t-30.5 -41.5t-10.5 -50.5v-37q0 -27 10 -50.5t29.5 -41.5t47 -28t62.5 -10t64.5 10t50.5 28t33 41.5t12 50.5
v37z" />
    <glyph glyph-name="seven.small" horiz-adv-x="452" 
d="M30 538h387l-212 -538h-41l193 501h-327v37z" />
    <glyph glyph-name="eight.small" horiz-adv-x="583" 
d="M474 403q0 -44 -26.5 -78.5t-70.5 -47.5q25 -6 45.5 -19.5t35 -31.5t22.5 -39.5t8 -44.5v-13q0 -65 -48 -107.5t-149 -42.5q-47 0 -83.5 11t-61.5 31t-38 47.5t-13 60.5v13q0 23 8 44.5t23 39.5t35.5 31.5t45.5 19.5q-45 13 -71.5 48t-26.5 78v12q0 32 13.5 59t37.5 46.5
t57.5 30.5t73.5 11t73.5 -11t58 -30.5t38 -46.5t13.5 -59v-12v0zM451 142q0 24 -9.5 44.5t-29 36t-50 24.5t-71.5 9q-37 0 -66.5 -9t-50 -24.5t-31.5 -36t-11 -44.5v-13q0 -50 44 -81.5t115 -31.5q35 0 64.5 8t50.5 23t33 36t12 46v13zM146 403q0 -47 34 -78.5t111 -31.5
q30 0 56.5 8.5t46.5 23t31.5 34.5t11.5 44v12q0 50 -40.5 80t-105.5 30t-105 -30t-40 -80v-12v0z" />
    <glyph glyph-name="nine.small" horiz-adv-x="572" 
d="M282 551q43 0 78.5 -13.5t61.5 -37t40.5 -54t14.5 -65.5v-240q0 -34 -14.5 -63t-40.5 -50t-61.5 -32.5t-78.5 -11.5q-50 0 -96 16.5t-77 48.5l24 35q25 -26 66 -44.5t83 -18.5q70 0 114 29.5t44 90.5v117q-5 -14 -21 -28t-37.5 -25.5t-47.5 -19t-52 -7.5q-43 0 -79 13.5
t-62.5 36.5t-41 54t-14.5 65v37q0 35 14.5 65t41 53t62.5 36t79 13zM440 384q0 27 -11.5 50.5t-32.5 41.5t-50 28t-64 10t-64.5 -10t-50.5 -28t-33 -41.5t-12 -50.5v-37q0 -27 12 -51t33 -42t50.5 -28.5t64.5 -10.5t64 10.5t50 28.5t32.5 42t11.5 51v37z" />
    <glyph glyph-name="h.alt" horiz-adv-x="554" 
d="M449 491v-491h-37v454h-103q-33 0 -66 -14t-60 -36.5t-44 -50.5t-17 -55v-298h-37v710h37v-328q32 54 82.5 81.5t104.5 27.5h140z" />
    <glyph glyph-name="n.alt" horiz-adv-x="555" 
d="M450 492v-492h-38v455h-103q-33 0 -66 -14t-59.5 -36.5t-43.5 -50.5t-17 -55v-299h-38v490h38v-112q32 55 83 84.5t103 29.5h141z" />
    <glyph glyph-name="E.alt" horiz-adv-x="547" 
d="M130 494q0 -24 11 -45.5t30.5 -37.5t46 -25.5t58.5 -9.5h97v-37h-97q-31 0 -60.5 -10t-52.5 -26.5t-37 -38.5t-14 -45v-61q0 -28 15 -52t39.5 -41.5t55.5 -27.5t64 -10h50q31 0 57 8t47 20t36 26t22 25l29 -22q-24 -38 -72 -66t-119 -28h-50q-41 0 -79 13t-67.5 35.5
t-47 53t-17.5 66.5v61q0 22 9.5 42.5t25.5 38.5t37.5 32.5t45.5 24.5q-45 20 -72.5 56t-27.5 81v41q0 33 15 61.5t41.5 49.5t61.5 32.5t75 11.5h37q21 -1 44.5 -7t46.5 -14.5t43.5 -19t33.5 -21.5l-20 -32q-12 8 -29.5 18t-38 18.5t-41.5 14.5t-39 6h-37q-32 0 -60.5 -9
t-49.5 -25t-33.5 -37.5t-12.5 -46.5v-41z" />
    <glyph glyph-name="a.alt" horiz-adv-x="493" 
d="M266 502q80 0 116.5 -43t36.5 -111v-348h-37v93q-7 -13 -22.5 -30.5t-39 -33t-54 -26.5t-68.5 -11q-66 0 -104.5 28.5t-38.5 85.5v34q0 51 35.5 82t86.5 47.5t107 22.5t97 8v48q0 57 -26 87t-89 30q-21 0 -45.5 -4t-47.5 -10.5t-42.5 -14t-29.5 -14.5l-13 32
q12 8 32.5 16.5t45 15.5t50.5 11.5t50 4.5zM382 263q-47 -2 -98 -7.5t-93.5 -19t-70 -37.5t-27.5 -64v-29q0 -41 27.5 -59t78.5 -18q31 0 63.5 11.5t59 30.5t43.5 43t17 48v101z" />
    <glyph glyph-name="Ssmall.alt" horiz-adv-x="509" 
d="M447 227v-85q0 -43 -14 -72t-39.5 -47t-60.5 -26t-77 -8q-31 0 -63 7.5t-60 21t-50 32.5t-33 42l32 20q9 -18 27 -34t41 -27.5t49.5 -18t52.5 -6.5q36 0 65 5t50 18.5t32 36t11 56.5v62l-336 112v88q0 45 19 72.5t48.5 43t63.5 20.5t64 5q59 0 104 -20t74 -62l-33 -22
q-25 34 -59.5 50.5t-82.5 16.5q-21 0 -48.5 -2.5t-52.5 -13t-42.5 -31.5t-17.5 -57v-64z" />
    <glyph glyph-name="s.alt" horiz-adv-x="432" 
d="M385 213v-84q0 -37 -13.5 -63t-37.5 -43t-56 -25t-68 -8q-51 0 -100 19.5t-84 52.5l24 30q29 -29 73 -47t88 -18q29 0 54 5t44 17t29.5 31t10.5 47v62l-298 100v77q0 34 12 59t33.5 41.5t51 25t63.5 8.5q40 0 83 -13.5t71 -32.5l-19 -34q-28 17 -64 30t-71 13
q-27 0 -49.5 -5t-39 -16.5t-25.5 -29.5t-9 -45v-54z" />
    <glyph glyph-name="S.alt" horiz-adv-x="574" 
d="M506 288v-115q0 -47 -17 -81t-46.5 -56.5t-69.5 -33.5t-87 -11q-74 0 -135 26t-102 86l30 22q37 -53 92.5 -75t115.5 -22q38 0 71.5 9t58 27.5t38.5 45.5t14 63v87l-396 142v121q0 44 16.5 76t45 52t67 29.5t83.5 9.5q71 0 126 -25t91 -68l-30 -30q-30 36 -78.5 61
t-109.5 25q-35 0 -66.5 -7t-55.5 -23t-38 -40.5t-14 -59.5v-94z" />
    <glyph glyph-name="ft" horiz-adv-x="633" 
d="M520 34q8 0 20 2t24.5 4.5t24.5 5.5t21 7l13 -33q-1 0 -11 -4t-25.5 -8t-33.5 -7.5t-34 -3.5q-55 0 -85.5 32.5t-30.5 88.5v336h-114v37h114v162q-10 5 -26 12t-35.5 13.5t-41.5 11t-43 4.5q-54 0 -83.5 -30.5t-29.5 -74.5v-98h97v-37h-97v-454h-37v454h-107v37h107v98
q0 29 10.5 55t30 45.5t47 30.5t62.5 11q57 0 104 -18.5t80 -38.5v-183h143v-37h-144v-339q0 -28 9 -44t21.5 -24.5t26 -10.5t23.5 -2z" />
    <glyph glyph-name="glyph330" horiz-adv-x="640" 
d="M131 -76l355 837h40l-354 -837h-41zM338 690q48 0 94 -15t81.5 -42t57.5 -66t22 -87v-282q0 -50 -21 -89t-56.5 -65.5t-81.5 -40t-96 -13.5h-16q-51 0 -97.5 13.5t-82 40t-56.5 65t-21 89.5v282q0 48 22 87t58 66t82 42t94 15h17v0zM556 480q0 40 -19 72t-50 54.5
t-70 34.5t-79 12h-17q-40 0 -79.5 -12t-70.5 -34.5t-50 -54.5t-19 -72v-282q0 -42 18.5 -74t49 -53.5t70.5 -32.5t82 -11h16q42 0 81 11t69.5 32.5t49 53.5t18.5 74v282z" />
    <glyph glyph-name="glyph331" horiz-adv-x="512" 
d="M252 501q38 0 73 -12t62.5 -33.5t44 -52t16.5 -68.5v-175q0 -38 -16.5 -69t-43.5 -53t-62.5 -34t-73.5 -12t-73.5 12t-63 34t-44 53t-16.5 69v175q0 38 16.5 68.5t44.5 52t63.5 33.5t72.5 12zM411 335q0 30 -13.5 54t-36 40.5t-51 25.5t-58.5 9t-58.5 -9t-51 -26
t-36.5 -40.5t-14 -53.5v-175q0 -30 13.5 -54.5t36 -41.5t51.5 -26t59 -9t58.5 9t51 26t36 41.5t13.5 54.5v175zM33 -59l367 599h42l-367 -599h-42z" />
    <glyph glyph-name="glyph333" horiz-adv-x="819" 
d="M256 502q76 0 118 -44t42 -120l-8 -243q-14 -30 -35.5 -50t-46.5 -31.5t-52 -16t-51 -4.5q-34 0 -64.5 9.5t-53.5 28t-36.5 45t-13.5 60.5v98l327 43v61q0 62 -32 94.5t-94 32.5q-23 0 -48 -5.5t-47.5 -13.5t-41 -16.5t-29.5 -15.5l-15 34q13 9 33 18.5t44 17.5t51 13
t53 5zM383 241l-290 -37v-68q0 -26 11 -46t29 -34t42 -21t50 -7q29 0 57 6.5t50.5 20.5t36.5 35t14 50v101zM595 30q30 0 54 5t43 12t31.5 14.5t19.5 13.5l21 -27q-32 -28 -79 -41.5t-90 -13.5q-42 0 -80 10t-67 31t-46 52.5t-17 74.5v174q0 34 14.5 64.5t40.5 54t61.5 37
t76.5 13.5t74.5 -12t57.5 -33.5t37.5 -53t13.5 -70.5v-51l-342 -39v-84q0 -34 14.5 -59t39 -41t56.5 -23.5t66 -7.5zM578 467q-33 0 -61.5 -11t-50.5 -29t-34.5 -42t-12.5 -50v-53l305 33v25q0 32 -11.5 55.5t-31 39.5t-46 24t-57.5 8z" />
    <glyph glyph-name="Qtounge" horiz-adv-x="675" 
d="M348 184l29 22l144 -190q15 -19 26 -30t22 -16t24 -6.5t32 -1.5v-37q-25 0 -43 2.5t-33 10t-29 21.5t-31 36z" />
    </font>
</defs>
</svg>
